<svg width="19" height="18" viewBox="0 0 19 18" fill="none" xmlns="http://www.w3.org/2000/svg">
<path d="M12.7217 9.95655C11.7798 8.81927 10.5892 8.19293 9.36914 8.19293C8.14911 8.19293 6.95848 8.81927 6.01659 9.95655C5.16992 10.9788 4.6645 12.2671 4.6645 13.4028C4.6645 13.9545 4.83315 14.3747 5.16576 14.6519C5.49405 14.9254 5.92748 15.018 6.41103 15.0179C6.92556 15.0179 7.49688 14.9131 8.05822 14.8102C8.54874 14.7202 9.01206 14.6352 9.36917 14.6352C9.67739 14.6352 10.112 14.7159 10.572 14.8012C11.647 15.0009 12.8656 15.227 13.5695 14.6418C13.9041 14.3636 14.0738 13.9467 14.0738 13.4028C14.0738 12.2671 13.5684 10.9788 12.7217 9.95655ZM13.0451 14.011C12.637 14.3503 11.575 14.1531 10.7216 13.9947C10.2234 13.9022 9.75283 13.8149 9.36911 13.8149C8.93738 13.8149 8.43844 13.9064 7.91015 14.0033C7.09173 14.1534 6.07317 14.3403 5.69079 14.0217C5.63982 13.9792 5.48473 13.85 5.48473 13.4028C5.48473 12.4664 5.9306 11.3463 6.64829 10.4798C7.43156 9.53406 8.39783 9.01322 9.36908 9.01322C10.3403 9.01322 11.3066 9.53406 12.0899 10.4798C12.8076 11.3463 13.2534 12.4664 13.2534 13.4028C13.2535 13.8377 13.0966 13.9682 13.0451 14.011ZM12.818 3.78101C12.4734 3.27288 11.9799 2.9815 11.464 2.9815C10.9482 2.9815 10.4547 3.27293 10.11 3.78101C9.79346 4.24779 9.61909 4.86079 9.61909 5.50708C9.61909 6.15338 9.79343 6.76638 10.11 7.23316C10.4547 7.74127 10.9482 8.0327 11.464 8.0327C11.9799 8.0327 12.4734 7.74127 12.818 7.23316C13.1346 6.76638 13.309 6.15338 13.309 5.50708C13.309 4.86079 13.1346 4.24777 12.818 3.78101ZM12.1392 6.77272C12.0278 6.93692 11.792 7.21241 11.464 7.21241C11.1361 7.21241 10.9003 6.93695 10.7889 6.77272C10.5668 6.4452 10.4394 5.98388 10.4394 5.50708C10.4394 5.03026 10.5668 4.56897 10.7889 4.24145C10.9003 4.07725 11.1361 3.80176 11.464 3.80176C11.792 3.80176 12.0278 4.07722 12.1392 4.24145C12.3613 4.56897 12.4887 5.03029 12.4887 5.50708C12.4887 5.98388 12.3613 6.4452 12.1392 6.77272ZM8.62826 3.78098C8.28362 3.27285 7.79014 2.98145 7.27427 2.98145C6.75841 2.98145 6.2649 3.27288 5.92029 3.78098C5.6037 4.24776 5.42933 4.86076 5.42933 5.50706C5.42933 6.15336 5.60368 6.76635 5.92029 7.23314C6.26493 7.74127 6.75841 8.0327 7.27427 8.0327C7.79014 8.0327 8.28362 7.74127 8.62826 7.23314C8.94484 6.76635 9.11922 6.15338 9.11922 5.50706C9.11919 4.86076 8.94484 4.24774 8.62826 3.78098ZM7.94934 6.77272C7.83797 6.93692 7.60215 7.21241 7.27425 7.21241C6.94631 7.21241 6.7105 6.93692 6.59913 6.77272C6.37699 6.4452 6.24959 5.98388 6.24959 5.50708C6.24959 5.03026 6.37701 4.56897 6.59913 4.24145C6.7105 4.07725 6.94631 3.80176 7.27425 3.80176C7.60218 3.80176 7.83797 4.07722 7.94934 4.24145C8.17148 4.56897 8.29887 5.03029 8.29887 5.50708C8.29887 5.98388 8.17148 6.4452 7.94934 6.77272ZM16.2876 7.7455C16.1487 7.27289 15.8509 6.92948 15.4491 6.77857C15.1258 6.65714 14.7609 6.67773 14.4215 6.83657C13.9538 7.05543 13.5715 7.50737 13.3727 8.07647C13.2102 8.54154 13.19 9.0331 13.3157 9.46067C13.4546 9.93328 13.7524 10.2767 14.1542 10.4276C14.2932 10.4798 14.4399 10.5058 14.589 10.5058C14.7866 10.5058 14.9884 10.4601 15.1819 10.3696C15.6496 10.1507 16.0319 9.69881 16.2307 9.12973V9.1297C16.3931 8.66467 16.4134 8.17308 16.2876 7.7455ZM15.4563 8.85919C15.3317 9.21578 15.0991 9.50267 14.8342 9.62665C14.7368 9.6722 14.5898 9.71494 14.4426 9.65968C14.0875 9.52627 13.9493 8.91284 14.147 8.34699C14.2716 7.9904 14.5042 7.7035 14.7691 7.5795C14.8337 7.54929 14.9201 7.52033 15.0138 7.52033C15.0615 7.52033 15.1111 7.52782 15.1607 7.54644C15.5158 7.67988 15.654 8.29331 15.4563 8.85919ZM5.36565 8.07642C5.16683 7.50731 4.78454 7.0554 4.31685 6.83654C3.97743 6.6777 3.61244 6.65714 3.28916 6.77855C2.88737 6.92948 2.58957 7.27289 2.45063 7.74548C2.32493 8.17305 2.34519 8.66464 2.50764 9.12968V9.1297C2.70649 9.69881 3.08876 10.1507 3.55644 10.3696C3.74993 10.4601 3.9517 10.5058 4.14931 10.5058C4.29839 10.5058 4.44512 10.4798 4.58413 10.4276C4.98598 10.2766 5.28375 9.93323 5.42269 9.46065C5.54833 9.0331 5.52807 8.54151 5.36565 8.07642ZM4.29566 9.65968C4.14852 9.71494 4.00152 9.6722 3.90412 9.62665C3.63919 9.50267 3.4066 9.21578 3.28205 8.85919V8.85922C3.08438 8.29334 3.22249 7.67993 3.57764 7.5465C3.72474 7.49123 3.87177 7.53397 3.9692 7.57953C4.23416 7.70353 4.46672 7.99042 4.59127 8.34699C4.78894 8.91287 4.6508 9.52627 4.29566 9.65968Z" fill="#4A4A49"/>
</svg>
