<svg width="18" height="18" viewBox="0 0 18 18" fill="none" xmlns="http://www.w3.org/2000/svg">
<g clip-path="url(#clip0_2960_3933)">
<g clip-path="url(#clip1_2960_3933)">
<path d="M9 17.25C6.39075 17.25 4.014 15.9308 2.63625 13.7213C2.628 13.7108 2.6205 13.7002 2.6145 13.6905C2.44425 13.4167 2.28675 13.1167 2.133 12.7762C1.71225 11.811 1.5 10.7948 1.5 9.75C1.48875 9.70275 1.125 7.266 1.125 6C1.125 2.37975 4.34325 1.9365 5.09475 1.8825C5.496 1.52475 6.948 0.375 9 0.375C12.27 0.375 16.875 2.12025 16.875 6C16.875 7.24275 16.5113 9.70125 16.4963 9.80475C16.5 10.791 16.2885 11.8103 15.87 12.7785C15.7027 13.1468 15.5198 13.4835 15.3225 13.7872C15.3083 13.809 15.2918 13.83 15.273 13.848C13.938 15.957 11.577 17.25 9 17.25ZM3.237 13.272C3.24525 13.2825 3.25275 13.2922 3.25875 13.3027C4.497 15.3045 6.64275 16.5 9 16.5C11.319 16.5 13.4437 15.3367 14.6835 13.389C14.6985 13.3665 14.715 13.344 14.7345 13.3253C14.8695 13.107 15.0345 12.8032 15.1838 12.4747C15.5588 11.6077 15.75 10.6883 15.75 9.75C15.7575 9.6705 16.125 7.188 16.125 6C16.125 2.63775 11.9587 1.125 9 1.125C6.92925 1.125 5.529 2.50125 5.5155 2.5155C5.445 2.58525 5.34975 2.62425 5.25075 2.625C5.11275 2.62575 1.875 2.6775 1.875 6C1.875 7.2105 2.2425 9.66975 2.24625 9.6945C2.25 10.6905 2.44125 11.607 2.81925 12.4725C2.952 12.7695 3.09 13.0327 3.237 13.272Z" fill="#4A4A49" stroke="#4A4A49" stroke-width="0.2"/>
<path d="M15.9657 11.625C15.803 11.625 15.653 11.5178 15.6057 11.3535L14.717 8.24854C9.29149 8.20354 7.09399 6.85204 6.21949 5.90779C5.65324 7.36279 3.91999 7.99729 3.30199 8.18104L2.39449 11.3528C2.33749 11.553 2.12899 11.6685 1.93099 11.61C1.73224 11.553 1.61674 11.3453 1.67374 11.1465L2.63974 7.77154C2.67649 7.64104 2.78224 7.54054 2.91424 7.50979C2.94199 7.50304 5.65099 6.84154 5.65099 4.91929C5.65099 4.72954 5.79274 4.56979 5.98099 4.54729C6.16999 4.51954 6.34474 4.64554 6.39049 4.83004C6.39649 4.85029 7.24399 7.50004 14.9997 7.50004C15.167 7.50004 15.314 7.61029 15.3597 7.77154L16.3257 11.1465C16.3827 11.346 16.2672 11.553 16.0685 11.61C16.0347 11.6205 15.9995 11.625 15.9657 11.625Z" fill="#4A4A49" stroke="#4A4A49" stroke-width="0.2"/>
<path d="M16.1091 12.0002C16.0221 12.0002 15.9344 11.992 15.8474 11.9845C15.6411 11.9642 15.4904 11.7805 15.5106 11.5742C15.5309 11.3687 15.7116 11.227 15.9201 11.2375C15.9831 11.2435 16.0461 11.2502 16.1091 11.2502C16.7294 11.2502 17.2341 10.7455 17.2341 10.1252C17.2341 9.5537 16.8089 9.07295 16.2449 9.0047C16.0394 8.9807 15.8924 8.79395 15.9171 8.5877C15.9419 8.38295 16.1301 8.2307 16.3341 8.25995C17.2746 8.37245 17.9841 9.17495 17.9841 10.1245C17.9841 11.1595 17.1426 12.0002 16.1091 12.0002Z" fill="#4A4A49" stroke="#4A4A49" stroke-width="0.2"/>
<path d="M1.875 12.0001C0.8415 12.0001 0 11.1593 0 10.1251C0 9.16657 0.71775 8.36407 1.66875 8.25982C1.88025 8.24182 2.0595 8.38582 2.08275 8.59132C2.106 8.79682 1.95675 8.98207 1.75125 9.00532C1.1895 9.06682 0.75 9.55882 0.75 10.1251C0.75 10.7453 1.25475 11.2501 1.875 11.2501C1.935 11.2501 1.99125 11.2448 2.03925 11.2351C2.241 11.1886 2.4405 11.3243 2.48175 11.5268C2.52375 11.7301 2.3925 11.9273 2.19 11.9693C2.0925 11.9896 1.986 12.0001 1.875 12.0001Z" fill="#4A4A49" stroke="#4A4A49" stroke-width="0.2"/>
<path d="M6 11.25C5.37975 11.25 4.875 10.7453 4.875 10.125C4.875 9.50475 5.37975 9 6 9C6.62025 9 7.125 9.50475 7.125 10.125C7.125 10.7453 6.62025 11.25 6 11.25ZM6 9.75C5.793 9.75 5.625 9.91875 5.625 10.125C5.625 10.3313 5.793 10.5 6 10.5C6.207 10.5 6.375 10.3313 6.375 10.125C6.375 9.91875 6.207 9.75 6 9.75Z" fill="#4A4A49" stroke="#4A4A49" stroke-width="0.2"/>
<path d="M12 11.25C11.3797 11.25 10.875 10.7453 10.875 10.125C10.875 9.50475 11.3797 9 12 9C12.6203 9 13.125 9.50475 13.125 10.125C13.125 10.7453 12.6203 11.25 12 11.25ZM12 9.75C11.793 9.75 11.625 9.91875 11.625 10.125C11.625 10.3313 11.793 10.5 12 10.5C12.207 10.5 12.375 10.3313 12.375 10.125C12.375 9.91875 12.207 9.75 12 9.75Z" fill="#4A4A49" stroke="#4A4A49" stroke-width="0.2"/>
<path d="M8.99999 14.2674C8.23199 14.2674 7.46324 13.9749 6.87824 13.3899C6.73199 13.2437 6.73199 13.0059 6.87824 12.8597C7.02449 12.7134 7.26224 12.7134 7.40849 12.8597C8.28599 13.7372 9.71324 13.7372 10.5907 12.8597C10.737 12.7134 10.9747 12.7134 11.121 12.8597C11.2672 13.0059 11.2672 13.2437 11.121 13.3899C10.5367 13.9757 9.76799 14.2674 8.99999 14.2674Z" fill="#4A4A49" stroke="#4A4A49" stroke-width="0.2"/>
</g>
</g>
<defs>
<clipPath id="clip0_2960_3933">
<rect width="18" height="18" fill="white"/>
</clipPath>
<clipPath id="clip1_2960_3933">
<rect width="18" height="18" fill="white"/>
</clipPath>
</defs>
</svg>
