<svg width="24" height="24" viewBox="0 0 24 24" fill="none" xmlns="http://www.w3.org/2000/svg">
<path d="M20.5052 5H2.54484C1.69301 5 1 5.69301 1 6.54484V17.6952C1 18.547 1.69301 19.24 2.54484 19.24H20.5052C21.3571 19.24 22.05 18.547 22.05 17.6952V6.54484C22.0501 5.69301 21.3571 5 20.5052 5ZM7.4752 14.2719H9.56191C9.81229 14.2719 10.0152 14.4748 10.0152 14.7251C10.0152 14.9755 9.81225 15.1784 9.56191 15.1784H7.4752C7.22482 15.1784 7.02192 14.9755 7.02192 14.7251C7.02192 14.4748 7.22486 14.2719 7.4752 14.2719ZM2.96029 9.72525C2.96029 9.47487 3.16322 9.27197 3.41356 9.27197H6.12902C6.3794 9.27197 6.5823 9.47491 6.5823 9.72525V11.6885C6.5823 11.9389 6.37936 12.1418 6.12902 12.1418H3.41356C3.16318 12.1418 2.96029 11.9389 2.96029 11.6885V9.72525ZM3.41356 14.2719H5.50027C5.75066 14.2719 5.95355 14.4748 5.95355 14.7251C5.95355 14.9755 5.75061 15.1784 5.50027 15.1784H3.41356C3.16318 15.1784 2.96029 14.9755 2.96029 14.7251C2.96029 14.4748 3.16326 14.2719 3.41356 14.2719ZM10.8631 17.1941H3.41356C3.16318 17.1941 2.96029 16.9911 2.96029 16.7408C2.96029 16.4905 3.16322 16.2875 3.41356 16.2875H10.8631C11.1135 16.2875 11.3164 16.4905 11.3164 16.7408C11.3164 16.9911 11.1135 17.1941 10.8631 17.1941ZM13.6235 15.1784H11.5368C11.2865 15.1784 11.0836 14.9755 11.0836 14.7251C11.0836 14.4748 11.2865 14.2719 11.5368 14.2719H13.6235C13.8739 14.2719 14.0768 14.4748 14.0768 14.7251C14.0768 14.9755 13.8739 15.1784 13.6235 15.1784ZM17.6852 15.1784H15.5985C15.3481 15.1784 15.1452 14.9755 15.1452 14.7251C15.1452 14.4748 15.3481 14.2719 15.5985 14.2719H17.6852C17.9356 14.2719 18.1385 14.4748 18.1385 14.7251C18.1385 14.9755 17.9355 15.1784 17.6852 15.1784ZM19.6365 8.55684H14.7149C14.4645 8.55684 14.2616 8.35391 14.2616 8.10357C14.2616 7.85323 14.4645 7.65029 14.7149 7.65029H19.6365C19.8869 7.65029 20.0898 7.85323 20.0898 8.10357C20.0898 8.35391 19.8868 8.55684 19.6365 8.55684Z" fill="#A9C74E"/>
</svg>
