<svg width="19" height="18" viewBox="0 0 19 18" fill="none" xmlns="http://www.w3.org/2000/svg">
<g clip-path="url(#clip0_566_2020)">
<path d="M18.0161 14.3636C17.1101 14.3636 16.268 13.9551 15.7055 13.2428C15.5668 13.0671 15.3583 12.9663 15.1337 12.9663C14.9091 12.9663 14.7007 13.0671 14.5619 13.2428C13.9995 13.955 13.1574 14.3636 12.2514 14.3636C11.3454 14.3636 10.5034 13.9551 9.94085 13.2428C9.80209 13.0671 9.59368 12.9663 9.36904 12.9663C9.14442 12.9663 8.93602 13.0671 8.79726 13.2428C8.23479 13.955 7.39263 14.3636 6.48672 14.3636C6.29178 14.3636 6.13379 14.5216 6.13379 14.7165C6.13379 14.9114 6.29182 15.0694 6.48672 15.0694C7.61 15.0694 8.65407 14.5631 9.35125 13.6803C9.35297 13.678 9.35761 13.6722 9.36904 13.6722C9.3805 13.6722 9.38514 13.6781 9.38683 13.6803C10.0839 14.5631 11.128 15.0694 12.2514 15.0694C13.3746 15.0695 14.4187 14.5631 15.1158 13.6803C15.1176 13.6781 15.1222 13.6722 15.1336 13.6722C15.1451 13.6722 15.1497 13.6781 15.1514 13.6803C15.8486 14.5631 16.8927 15.0694 18.0159 15.0694C18.2109 15.0694 18.3689 14.9114 18.3689 14.7165C18.369 14.5216 18.2109 14.3636 18.0161 14.3636Z" fill="#4A4A49"/>
<path d="M5.34581 14.3682C4.89163 14.3682 4.89085 15.074 5.34581 15.074C5.79999 15.074 5.80073 14.3682 5.34581 14.3682Z" fill="#4A4A49"/>
<path d="M18.0162 11.1996C17.1101 11.1996 16.2679 10.7912 15.7056 10.0794C15.5669 9.90343 15.3585 9.80246 15.1337 9.80246C14.9089 9.80246 14.7005 9.90336 14.562 10.079C14.2085 10.5266 13.7416 10.8565 13.2145 11.0384L13.8232 8.4127C14.3227 8.17353 14.7656 7.82116 15.1115 7.38484C15.1197 7.37443 15.1296 7.37225 15.1364 7.37225C15.1364 7.37225 15.1364 7.37225 15.1364 7.37225C15.146 7.37225 15.1492 7.3763 15.1515 7.37925C15.8487 8.26213 16.8928 8.76845 18.0161 8.76845C18.211 8.76845 18.369 8.61042 18.369 8.41551C18.369 8.22057 18.2109 8.06258 18.0161 8.06258C17.1101 8.06258 16.268 7.65407 15.7055 6.9418C15.5675 6.767 15.3603 6.6666 15.1371 6.66639C15.1368 6.66639 15.1366 6.66639 15.1364 6.66639C14.9101 6.66639 14.6994 6.76838 14.5584 6.9463C14.5045 7.01426 14.4476 7.07951 14.3882 7.14226L14.0869 6.74813C14.0846 6.74482 14.0821 6.74152 14.0796 6.73832L11.2713 3.06492C11.1685 2.93045 10.9848 2.88784 10.8333 2.96346L6.69666 5.02702C6.69655 5.02709 6.69641 5.02713 6.6963 5.0272L5.919 5.41497C5.74459 5.50198 5.67372 5.7139 5.76073 5.88835C5.84774 6.06276 6.05973 6.13367 6.23411 6.04662L6.33943 5.99406L5.87277 7.99768C5.20821 7.85509 4.60177 7.48075 4.17606 6.94152C4.03751 6.76602 3.82921 6.6653 3.60478 6.6653C3.38006 6.6653 3.17155 6.76606 3.03271 6.94184C2.47028 7.65407 1.62812 8.06258 0.722214 8.06258C0.527273 8.06258 0.369281 8.22061 0.369281 8.41551C0.369281 8.61045 0.527308 8.76845 0.722214 8.76845C1.84549 8.76845 2.88952 8.26213 3.5867 7.37932C3.58846 7.37711 3.59314 7.3712 3.6047 7.3712C3.61588 7.3712 3.62021 7.37661 3.62204 7.37893C4.14671 8.04353 4.89346 8.50629 5.7126 8.68527L5.1963 10.9021C4.80096 10.7092 4.45292 10.4296 4.17648 10.0794C4.03779 9.90343 3.82935 9.80253 3.60456 9.80253C3.37978 9.80253 3.17137 9.90343 3.03285 10.0791C2.47036 10.7912 1.62812 11.1997 0.722003 11.1997C0.527168 11.1996 0.369141 11.3576 0.369141 11.5525C0.369141 11.7475 0.527168 11.9055 0.722074 11.9055C1.84552 11.9055 2.88966 11.3993 3.58702 10.5163C3.58888 10.514 3.59328 10.5084 3.60453 10.5084C3.61578 10.5084 3.62017 10.5139 3.62221 10.5165C4.06483 11.0772 4.65517 11.4925 5.32954 11.7179C5.33059 11.7183 5.33161 11.7186 5.33267 11.719C5.33337 11.7192 5.33407 11.7195 5.33478 11.7197C5.70525 11.843 6.09278 11.9054 6.48663 11.9054C7.02051 11.9054 7.53527 11.7924 8.01663 11.5698C8.01751 11.5694 8.01839 11.5691 8.01927 11.5687C8.02053 11.5681 8.0218 11.5675 8.02303 11.567C8.53821 11.3277 8.99752 10.9645 9.35158 10.5163C9.35344 10.5139 9.35784 10.5083 9.36909 10.5083C9.3803 10.5083 9.3847 10.5139 9.38677 10.5165C9.63694 10.8333 9.93559 11.1049 10.2745 11.3238C10.2784 11.3263 10.2824 11.3286 10.2863 11.3311C10.2869 11.3315 10.2875 11.3319 10.2881 11.3322C10.8741 11.7072 11.5526 11.9055 12.2515 11.9055C12.4334 11.9055 12.6158 11.8919 12.7933 11.8653C12.7947 11.8651 12.7961 11.8648 12.7976 11.8646C12.7994 11.8643 12.8012 11.8641 12.8031 11.8637C13.7179 11.7252 14.539 11.2471 15.1162 10.5163C15.1181 10.514 15.1225 10.5084 15.1337 10.5084C15.1449 10.5084 15.1493 10.514 15.1514 10.5166C15.8486 11.3993 16.8928 11.9055 18.0161 11.9055C18.211 11.9055 18.3691 11.7475 18.3691 11.5526C18.3691 11.3577 18.211 11.1996 18.0162 11.1996ZM10.2467 10.4103C10.1369 10.3081 10.0345 10.1978 9.94097 10.0794C9.80235 9.90339 9.59391 9.80246 9.36912 9.80246C9.1443 9.80246 8.93586 9.90336 8.79738 10.079C8.68263 10.2243 8.55399 10.3583 8.41442 10.4794L8.81295 8.75899L10.5366 9.15861L10.2467 10.4103ZM12.4542 11.1924C12.3869 11.197 12.3192 11.1996 12.2516 11.1996C11.7656 11.1996 11.2922 11.0807 10.8684 10.8545L11.304 8.97422C11.348 8.78437 11.2297 8.59477 11.0399 8.55072L8.62859 7.99167C8.53743 7.97054 8.44149 7.98647 8.36207 8.03604C8.28266 8.08557 8.22613 8.16464 8.20503 8.25583L7.57085 10.9934C7.22649 11.1302 6.86256 11.1996 6.48667 11.1996C6.27693 11.1996 6.06965 11.1772 5.86704 11.1339L7.15945 5.58498L10.8876 3.72522L13.4179 7.035L12.4542 11.1924Z" fill="#4A4A49"/>
<path d="M10.2707 5.10742C9.6298 5.10742 9.1084 5.62879 9.1084 6.26965C9.1084 6.91072 9.62976 7.43223 10.2707 7.43223C10.9115 7.43223 11.4329 6.91069 11.4329 6.26965C11.4329 5.62879 10.9115 5.10742 10.2707 5.10742ZM10.2707 6.72636C10.019 6.72636 9.81426 6.52147 9.81426 6.26965C9.81426 6.01804 10.019 5.81329 10.2707 5.81329C10.5223 5.81329 10.727 6.018 10.727 6.26965C10.727 6.52147 10.5223 6.72636 10.2707 6.72636Z" fill="#4A4A49"/>
</g>
<defs>
<clipPath id="clip0_566_2020">
<rect width="18" height="18" fill="white" transform="translate(0.369141)"/>
</clipPath>
</defs>
</svg>
