<svg width="19" height="18" viewBox="0 0 19 18" fill="none" xmlns="http://www.w3.org/2000/svg">
<path d="M9.79946 3.87529C10.7193 3.87529 11.4681 3.12649 11.4681 2.20669C11.4681 1.28689 10.7193 0.538086 9.79946 0.538086C8.87966 0.538086 8.13086 1.28689 8.13086 2.20669C8.13086 3.12649 8.87786 3.87529 9.79946 3.87529ZM9.79946 1.25809C10.3233 1.25809 10.7481 1.68289 10.7481 2.20669C10.7481 2.73049 10.3233 3.15529 9.79946 3.15529C9.27566 3.15529 8.85086 2.73049 8.85086 2.20669C8.85086 1.68289 9.27566 1.25809 9.79946 1.25809Z" fill="#4A4A49"/>
<path d="M6.79501 4.94284L5.84461 6.21544L5.61781 5.45944C5.39461 4.71244 4.66021 4.12744 3.94561 4.12744H2.94301C2.74501 4.12744 2.58301 4.28944 2.58301 4.48744C2.58301 4.68544 2.74501 4.84744 2.94301 4.84744H3.94741C4.33981 4.84744 4.79881 5.22904 4.92841 5.66464L5.30821 6.93184L5.17321 7.11364C4.70701 7.73824 4.70701 8.71744 5.17501 9.34204L5.82121 10.1988C4.59181 10.8738 3.81601 12.159 3.81601 13.59C3.81601 15.7248 5.55301 17.4636 7.68961 17.4636C9.82441 17.4636 11.5614 15.7266 11.5614 13.59C11.5614 12.879 11.3616 12.204 11.016 11.6208H11.9088L12.7944 14.3316C12.105 14.5062 11.5938 15.129 11.5938 15.8724C11.5938 16.749 12.3084 17.4636 13.185 17.4636C13.9374 17.4636 14.5692 16.9362 14.733 16.2324H16.2702C16.4682 16.2324 16.6302 16.0704 16.6302 15.8724C16.6302 15.6744 16.4682 15.5124 16.2702 15.5124H14.733C14.724 15.471 14.7132 15.4314 14.7006 15.39C14.9058 15.3126 15.0786 15.1848 15.2028 15.0138C15.4152 14.7204 15.4656 14.328 15.3378 13.9374L14.1516 10.2978C13.9104 9.55984 13.1148 8.98384 12.339 8.98384H10.0386L10.5444 6.60064C10.5642 6.48184 10.575 6.35944 10.575 6.24064C10.575 5.07604 9.62641 4.12744 8.46181 4.12744C7.81021 4.12744 7.20541 4.42084 6.79501 4.94284ZM7.68781 16.7418C5.94901 16.7418 4.53421 15.327 4.53421 13.5882C4.53421 12.3876 5.20201 11.313 6.25681 10.7784L6.75901 11.4444C6.76981 11.457 6.78061 11.4696 6.79141 11.4822C7.27561 11.9664 8.06221 11.9664 8.54641 11.4822C8.76961 11.259 8.88841 10.9728 8.90461 10.6812C10.053 11.1654 10.8378 12.3084 10.8378 13.5882C10.8414 15.327 9.42661 16.7418 7.68781 16.7418ZM13.185 16.7418C12.7044 16.7418 12.3138 16.3512 12.3138 15.8706C12.3138 15.39 12.7044 14.9994 13.185 14.9994C13.6656 14.9994 14.0562 15.39 14.0562 15.8706C14.0544 16.3512 13.6638 16.7418 13.185 16.7418ZM8.46181 4.84744C9.23041 4.84744 9.85501 5.47204 9.85501 6.24064C9.85501 6.31984 9.84781 6.40084 9.83701 6.46564L9.24301 9.26824C9.21961 9.37444 9.24661 9.48604 9.31501 9.56884C9.38341 9.65344 9.48601 9.70204 9.59401 9.70204H12.339C12.798 9.70204 13.3236 10.0836 13.4658 10.5192L14.652 14.1588C14.7078 14.3298 14.697 14.4828 14.6196 14.589C14.5566 14.6772 14.4468 14.7294 14.31 14.7456C14.1048 14.5404 13.842 14.391 13.5504 14.3226L12.5118 11.1456C12.4632 10.998 12.3246 10.8972 12.1698 10.8972H10.467C9.97921 10.3914 9.35281 10.0188 8.64541 9.83704C8.62021 9.80644 8.59501 9.77584 8.56801 9.74704L7.43041 8.22424L8.74981 6.45664C8.86861 6.29824 8.83621 6.07144 8.67601 5.95264C8.51581 5.83384 8.29081 5.86624 8.17201 6.02464L6.69061 8.00644C6.59521 8.13424 6.59521 8.30884 6.69061 8.43664L8.00281 10.1934C8.01361 10.2078 8.02441 10.2204 8.03701 10.233C8.24041 10.4364 8.24041 10.7658 8.03701 10.9692C7.83901 11.1672 7.52041 11.1726 7.31701 10.9836L5.74921 8.91004C5.47741 8.54644 5.47741 7.90744 5.74921 7.54384L7.36741 5.38024C7.63381 5.04184 8.03161 4.84744 8.46181 4.84744Z" fill="#4A4A49"/>
<path d="M7.68777 14.3477C8.08542 14.3477 8.40777 14.0254 8.40777 13.6277C8.40777 13.2301 8.08542 12.9077 7.68777 12.9077C7.29013 12.9077 6.96777 13.2301 6.96777 13.6277C6.96777 14.0254 7.29013 14.3477 7.68777 14.3477Z" fill="#4A4A49"/>
</svg>
