<svg width="19" height="18" viewBox="0 0 19 18" fill="none" xmlns="http://www.w3.org/2000/svg">
<g clip-path="url(#clip0_567_313)">
<path d="M15.4946 6.875H14.106L14.5083 5.3675C15.3146 5.075 15.9333 4.4075 16.1546 3.57875C16.3833 2.72375 16.1658 1.8125 15.5771 1.15625C15.4421 0.99875 15.2358 0.93125 15.0333 0.97625C14.8308 1.02125 14.6658 1.175 14.6058 1.38125L14.2833 2.58875L13.6571 2.765L13.1996 2.29625L13.5183 1.09625C13.5746 0.8975 13.5183 0.68375 13.3683 0.5375C13.2183 0.395 13.0046 0.3425 12.8021 0.40625C11.7521 0.75125 11.0433 1.69625 10.9946 2.81C10.9646 3.455 11.1858 4.09625 11.6096 4.595L10.998 6.875H9.86958V3.23375C9.86958 3.19625 9.87708 3.155 9.89208 3.11375L10.1321 2.39C10.2221 2.13875 10.2146 1.865 10.1171 1.60625L9.51333 0.095C9.42708 -0.115 9.22083 -0.25 8.99208 -0.25H8.49708C8.26833 -0.25 8.06208 -0.115 7.97208 0.1025L7.37208 1.61C7.27458 1.865 7.26708 2.13875 7.35333 2.3825L7.60083 3.1175C7.61208 3.155 7.61958 3.19625 7.61958 3.23375V6.875H6.05658L5.3002 4.0565C5.33058 3.9455 5.33395 3.8285 5.3032 3.7145L5.18133 3.25925C5.26533 3.25212 5.35008 3.278 5.41795 3.33425C5.57733 3.46662 5.81545 3.52025 6.01008 3.4685L6.28608 3.39462C6.46458 3.347 6.61383 3.24012 6.70645 3.09387C6.80395 2.94012 6.83133 2.75825 6.78408 2.58162L6.3472 0.9515C6.25345 0.602 5.89308 0.39425 5.54358 0.48725C5.54358 0.48725 5.54358 0.48725 5.5432 0.48725L5.23495 0.570125C5.03995 0.621875 4.86033 0.788375 4.78795 0.983375C4.75045 1.08462 4.66945 1.15812 4.56595 1.18625C4.4602 1.21437 4.34808 1.18775 4.2652 1.11537C4.10883 0.9785 3.88983 0.93125 3.67945 0.987125L2.96283 1.17912C2.10295 1.40937 1.38558 1.96062 0.943827 2.73012C0.521952 3.45762 0.391827 4.30962 0.577827 5.12862C0.629577 5.35662 0.814077 5.52425 1.04845 5.55538C1.07433 5.55875 1.1002 5.56063 1.1257 5.56063C1.33158 5.56063 1.51908 5.45037 1.61695 5.2655C1.86033 4.80612 2.28745 4.466 2.78845 4.33175L2.93508 4.29275L2.94933 4.34562C2.98045 4.46112 3.0427 4.562 3.12595 4.64337L3.72145 6.87537H1.24533C0.831702 6.87537 0.495327 7.21175 0.495327 7.62537V9.12537C0.495327 9.539 0.831702 9.87537 1.24533 9.87537V13.6254C1.24533 15.0729 2.42283 16.2504 3.87033 16.2504H12.8703C14.3178 16.2504 15.4953 15.0729 15.4953 13.6254V9.87537C15.909 9.87537 16.2453 9.539 16.2453 9.12537V7.62537C16.2453 7.21175 15.909 6.87537 15.4953 6.87537L15.4946 6.875ZM10.9946 9.125H5.74458V7.625H10.9946V9.125ZM3.86958 7.625H4.99458V9.5H3.86958V7.625ZM11.7446 7.625H12.8696V9.5H11.7446V7.625ZM12.2921 4.2275C11.9208 3.85625 11.7183 3.35375 11.7446 2.84375C11.7746 2.16875 12.1383 1.58375 12.6971 1.26875L12.4721 2.10125C12.4083 2.3525 12.4796 2.62625 12.6596 2.8175L13.1133 3.2825C13.3008 3.485 13.5858 3.5675 13.8633 3.48875L14.4933 3.30875C14.7446 3.23375 14.9433 3.03125 15.0108 2.78L15.2321 1.9475C15.4871 2.37875 15.5621 2.8925 15.4271 3.38375C15.2583 4.02875 14.7521 4.535 14.1033 4.7075C13.9721 4.745 13.8746 4.84625 13.8371 4.97375L13.3267 6.875H11.7776L12.3896 4.59125C12.4233 4.46 12.3858 4.325 12.2921 4.2275ZM8.30958 2.87375L8.06208 2.13875C8.03583 2.05625 8.03583 1.96625 8.06958 1.88375L8.62083 0.5H8.86833L9.41958 1.88C9.45333 1.96625 9.45333 2.05625 9.42333 2.1425L9.18333 2.87C9.14208 2.98625 9.11958 3.11375 9.11958 3.23375V6.875H8.36958V3.23375C8.36958 3.11375 8.34708 2.98625 8.30958 2.87375ZM3.63483 4.00812C3.58945 3.83862 3.48108 3.69687 3.3292 3.6095C3.17733 3.52212 3.0007 3.49887 2.83083 3.54387L2.59383 3.60725C2.0632 3.74937 1.59183 4.0565 1.24608 4.47612C1.2307 3.9995 1.34883 3.52587 1.59295 3.10475C1.93533 2.5085 2.4907 2.08175 3.15633 1.90325L3.82495 1.724C4.09045 1.92762 4.43508 1.99775 4.75945 1.91037C5.0827 1.82412 5.34783 1.5905 5.47608 1.28187L5.6467 1.23612L6.03483 2.68512L5.8642 2.73088C5.59908 2.52762 5.25295 2.45787 4.93008 2.54412C4.88508 2.55612 4.84195 2.57112 4.80108 2.58875C4.50595 2.714 4.34733 3.04587 4.4317 3.35975L4.55433 3.81762L3.6487 4.06025L3.63483 4.00812ZM3.93595 4.76L4.65708 4.56687L5.27658 6.875H4.5007L3.93595 4.76ZM1.24458 7.625H3.11958V9.125H1.24458V7.625ZM14.7446 13.625C14.7446 14.6589 13.9035 15.5 12.8696 15.5H3.86958C2.8357 15.5 1.99458 14.6589 1.99458 13.625V9.875H3.22383C3.35395 10.0981 3.5932 10.25 3.86958 10.25H4.99458C5.27095 10.25 5.5102 10.0981 5.64033 9.875H11.0988C11.229 10.0981 11.4682 10.25 11.7446 10.25H12.8696C13.146 10.25 13.3852 10.0981 13.5153 9.875H14.7446V13.625ZM15.4946 9.125H13.6196V7.625H15.4946V9.125Z" fill="#4A4A49"/>
</g>
<defs>
<clipPath id="clip0_567_313">
<rect width="18" height="18" fill="white" transform="translate(0.369141)"/>
</clipPath>
</defs>
</svg>
