<svg width="322" height="393" viewBox="0 0 322 393" fill="none" xmlns="http://www.w3.org/2000/svg">
<path d="M300 0C312.15 0 322 9.84974 322 22V38H277C262.088 38 250 50.0883 250 65V187C250 201.912 262.088 214 277 214H322V280.591H207.045C191.029 280.591 178.045 293.575 178.045 309.591V393H22C9.84974 393 0 383.15 0 371V22C5.3799e-06 9.84974 9.84974 0 22 0H300ZM256.156 194.056L256.123 193.96C256.079 193.828 256.037 193.695 255.995 193.562C256.047 193.727 256.101 193.892 256.156 194.056Z" fill="#D9D9D9"/>
</svg>
