<svg width="19" height="18" viewBox="0 0 19 18" fill="none" xmlns="http://www.w3.org/2000/svg">
<path d="M7.90629 1.89747L3.39129 4.84497C1.94379 5.78997 1.94379 7.90497 3.39129 8.84997L7.90629 11.7975C8.71629 12.33 10.0513 12.33 10.8613 11.7975L15.3538 8.84997C16.7938 7.90497 16.7938 5.79747 15.3538 4.85247L10.8613 1.90497C10.0513 1.36497 8.71629 1.36497 7.90629 1.89747Z" stroke="#4A4A49" stroke-width="0.8" stroke-linecap="round" stroke-linejoin="round"/>
<path d="M4.59148 9.81006L4.58398 13.3276C4.58398 14.2801 5.31898 15.3001 6.21898 15.6001L8.61148 16.3951C9.02398 16.5301 9.70648 16.5301 10.1265 16.3951L12.519 15.6001C13.419 15.3001 14.154 14.2801 14.154 13.3276V9.84756" stroke="#4A4A49" stroke-width="0.8" stroke-linecap="round" stroke-linejoin="round"/>
<path d="M16.4189 11.25V6.75" stroke="#4A4A49" stroke-width="0.8" stroke-linecap="round" stroke-linejoin="round"/>
</svg>
