<svg width="19" height="18" viewBox="0 0 19 18" fill="none" xmlns="http://www.w3.org/2000/svg">
<g clip-path="url(#clip0_567_683)">
<g clip-path="url(#clip1_567_683)">
<path d="M10.123 4.5C8.88255 4.5 7.87305 3.4905 7.87305 2.25C7.87305 1.0095 8.88255 0 10.123 0C11.3635 0 12.373 1.0095 12.373 2.25C12.373 3.4905 11.3635 4.5 10.123 4.5ZM10.123 0.75C9.2958 0.75 8.62305 1.42275 8.62305 2.25C8.62305 3.07725 9.2958 3.75 10.123 3.75C10.9503 3.75 11.623 3.07725 11.623 2.25C11.623 1.42275 10.9503 0.75 10.123 0.75Z" fill="#4A4A49"/>
<path d="M5.24902 18C5.04202 18 4.87402 17.832 4.87402 17.625V10.875C4.87402 10.668 5.04202 10.5 5.24902 10.5C5.45602 10.5 5.62402 10.668 5.62402 10.875V17.625C5.62402 17.832 5.45602 18 5.24902 18Z" fill="#4A4A49"/>
<path d="M12.742 18C12.535 18 12.367 17.832 12.367 17.625V16.5105C12.367 15.6938 12.6063 14.9025 13.06 14.2222L13.3 13.8623C13.6848 13.2848 13.8813 12.621 13.8685 11.9415C13.8153 9.0915 13.2993 7.299 12.244 6.30075C12.04 6.1065 11.7648 6 11.47 6H10.597C9.71805 6 8.9013 6.43725 8.41305 7.16925L8.02455 7.752C7.8438 8.02275 7.5948 8.24325 7.3038 8.38875L5.13405 9.47625C4.97355 9.5565 4.87305 9.7185 4.87305 9.8985C4.87305 10.038 4.9308 10.164 5.0358 10.2555C5.1408 10.347 5.2743 10.3868 5.41155 10.3658L6.6168 10.1933C6.8358 10.1618 7.03905 10.068 7.20405 9.92175L8.87505 8.43975C9.0123 8.3175 9.1893 8.25 9.3738 8.25C9.78705 8.25 10.1238 8.58675 10.1238 9V17.625C10.1238 17.832 9.9558 18 9.7488 18C9.5418 18 9.3738 17.832 9.3738 17.625V9L7.7028 10.482C7.42755 10.7258 7.0893 10.8825 6.7248 10.935L5.5188 11.1075C5.1693 11.1548 4.81305 11.0543 4.5453 10.821C4.27755 10.5885 4.12305 10.2517 4.12305 9.89775C4.12305 9.432 4.3818 9.0135 4.79805 8.805L6.9678 7.7175C7.14255 7.62975 7.2918 7.4985 7.40055 7.33575L7.78905 6.753C8.4168 5.81175 9.4668 5.25 10.5978 5.25H11.4708C11.9583 5.25 12.4158 5.42925 12.76 5.7555C13.9705 6.9015 14.5615 8.86275 14.6193 11.9265C14.635 12.7598 14.395 13.572 13.9248 14.2778L13.6848 14.6378C13.3135 15.1943 13.1178 15.8415 13.1178 16.5098V17.625C13.117 17.832 12.949 18 12.742 18Z" fill="#4A4A49"/>
</g>
</g>
<defs>
<clipPath id="clip0_567_683">
<rect width="18" height="18" fill="white" transform="translate(0.369141)"/>
</clipPath>
<clipPath id="clip1_567_683">
<rect width="18" height="18" fill="white" transform="translate(0.369141)"/>
</clipPath>
</defs>
</svg>
