<svg width="68" height="50" viewBox="0 0 68 50" fill="none" xmlns="http://www.w3.org/2000/svg">
<path d="M67.9495 37.4843V38.9567C67.7466 39.3278 67.4069 39.4117 66.9996 39.4044L55.4491 39.3985C55.3873 43.5698 61.2089 45.3146 63.3675 41.8044C63.5852 41.4495 63.6219 40.7428 64.0807 40.6044C64.5763 40.4557 67.5113 40.7339 67.7378 41.1639C68.0833 41.8191 66.2423 44.3413 65.6659 44.8405C60.4501 49.3667 51.4524 46.1951 51.3259 38.5931C51.1494 28.0933 64.9792 26.9875 67.4363 35.1241L67.9495 37.4814V37.4843ZM63.6851 36.4537C63.4778 31.6315 55.9711 31.764 55.5976 36.4537H63.6851Z" fill="white"/>
<path d="M37.3626 43.0055C37.492 41.8702 38.5096 40.6982 39.3492 40.0282C41.027 42.0263 43.6268 44.0155 45.9869 41.7024C48.347 39.3892 46.531 35.3107 43.1724 35.5727C39.8139 35.8348 36.5215 43.3588 32.7409 45.0035C26.0092 47.9321 20.5023 39.002 26.09 34.1489C29.2456 31.4073 33.9158 32.9519 36.1509 36.0837L34.4908 38.2216C32.6395 36.6535 31.1396 34.5877 28.4413 35.988C24.8195 37.8668 27.1252 43.8418 31.1867 42.5637C35.1893 41.3048 37.42 33.2567 42.7327 32.7766C51.2923 32.0036 52.5334 44.338 44.1665 45.5483C42.7666 45.75 41.6446 45.055 40.305 44.8489C40.3388 46.1476 40.2594 47.4565 40.2977 48.7567C40.305 49.007 40.6285 50.0023 40.2315 50.0023H37.5847C37.5449 50.0023 37.4391 49.8301 37.3641 49.7815C37.542 47.6303 37.1259 45.1125 37.3641 43.0084L37.3626 43.0055Z" fill="#EB141D"/>
<path d="M66.1837 16.1346H52.8025C53.5583 20.9258 60.9547 21.5972 62.5105 17.0165C62.6693 16.8958 65.3558 18.5464 65.8896 18.4904C64.7015 22.17 60.5665 23.9619 56.8654 23.6232C50.5438 23.046 47.2794 16.697 49.8336 11.0253C52.5128 5.07531 62.109 4.41125 65.1588 10.3141C65.4367 10.8501 66.1837 12.907 66.1837 13.4106V16.1346ZM52.9495 13.1897H62.3605C61.4312 8.54577 53.895 8.60467 52.9495 13.1897Z" fill="white"/>
<path d="M11.4819 31.1525C12.276 30.8756 13.2347 30.1085 14.064 29.9834C17.28 29.5004 22.2163 30.4398 22.2163 34.6126V46.0974C22.2163 46.1136 22.0119 46.3183 21.9957 46.3183H18.6137C18.5975 46.3183 18.3931 46.1136 18.3931 46.0974V35.2016C18.3931 34.9601 17.9711 34.1208 17.7814 33.9C16.6727 32.6087 13.7641 32.859 12.5848 33.9515C12.2289 34.2813 11.4804 35.6448 11.4804 36.085V45.9501C11.4804 45.9987 11.2863 46.174 11.3334 46.3183H7.8778C7.64106 46.3183 7.52342 45.5821 7.50283 45.3686C6.92053 39.0151 7.95868 31.7782 7.50283 25.3306C7.43519 25.1156 7.71164 24.3809 7.8778 24.3809H11.2599C11.276 24.3809 11.4804 24.5855 11.4804 24.6017V31.1539L11.4819 31.1525Z" fill="white"/>
<path d="M34.8616 6.56348V16.7967C34.8616 17.5624 35.8468 18.8787 36.4865 19.2924C38.9686 20.8988 42.8021 18.9111 42.8021 15.9133V6.56348H46.6253V23.3489H42.8021V21.4363L41.0258 22.6746C36.5365 25.1217 31.706 22.9219 30.9061 17.8127C30.3532 14.2774 30.9855 10.1665 30.7443 6.56348H34.8616Z" fill="white"/>
<path d="M20.5989 0.379883V4.35538H11.482V23.3494H7.51172V0.379883H20.5989Z" fill="white"/>
<path d="M21.6285 6.56348V9.21381L23.9371 7.18189C24.2988 6.98753 25.4781 6.56348 25.8193 6.56348H28.7602C28.7764 6.56348 28.9808 6.76814 28.9808 6.78434V10.9807C26.4119 10.2887 23.0975 10.938 21.9961 13.631C21.9167 13.8254 21.6285 14.7545 21.6285 14.8826V23.3489H17.6582V6.56348H21.6285Z" fill="white"/>
<path d="M0.799473 4.00933C-1.45622 2.07753 1.54353 -1.39441 3.84039 0.596289C6.13726 2.58698 3.08163 5.96469 0.798003 4.00933H0.799473Z" fill="#EB141D"/>
</svg>
