<svg width="19" height="18" viewBox="0 0 19 18" fill="none" xmlns="http://www.w3.org/2000/svg">
<g clip-path="url(#clip0_567_740)">
<g clip-path="url(#clip1_567_740)">
<path d="M13.1161 6.06633L12.9235 5.43243C12.6789 4.71236 11.8968 4.32697 11.1767 4.57162C10.9769 4.63953 10.7953 4.75247 10.646 4.90173C10.4968 5.05099 10.3838 5.23257 10.3159 5.43243L10.1233 6.06633C9.96125 6.60093 9.92724 7.16616 10.024 7.71633C10.0676 7.945 10.1621 8.16093 10.3004 8.34814C10.4387 8.53535 10.6174 8.68904 10.8232 8.79783L10.6075 13.6197C10.5933 13.7528 10.6073 13.8874 10.6486 14.0147C10.69 14.142 10.7578 14.2591 10.8475 14.3583C11.238 14.7855 11.9009 14.8152 12.328 14.4247C12.3511 14.4036 12.3732 14.3814 12.3943 14.3583C12.4821 14.2619 12.5488 14.1481 12.5902 14.0244C12.6315 13.9007 12.6465 13.7697 12.6343 13.6398L12.4174 8.79723C12.6229 8.68839 12.8014 8.53473 12.9395 8.34764C13.0776 8.16054 13.1719 7.94479 13.2154 7.71633C13.3122 7.16616 13.2782 6.60093 13.1161 6.06633ZM12.6244 7.61193C12.5925 7.77545 12.5182 7.92771 12.409 8.05349C12.2997 8.17927 12.1594 8.27415 12.0019 8.32863C11.9426 8.35092 11.8919 8.39139 11.8571 8.44426C11.8222 8.49713 11.805 8.55967 11.8078 8.62293L12.0358 13.6872C12.041 13.7363 12.0357 13.786 12.0202 13.8328C12.0046 13.8797 11.9793 13.9227 11.9458 13.959C11.7652 14.1379 11.4743 14.1379 11.2936 13.959C11.2585 13.9198 11.2324 13.8734 11.2172 13.823C11.2019 13.7726 11.1979 13.7195 11.2054 13.6674L11.4316 8.62293C11.4345 8.55967 11.4172 8.49713 11.3824 8.44426C11.3475 8.39139 11.2968 8.35092 11.2375 8.32863C11.0801 8.27415 10.9397 8.17927 10.8305 8.05349C10.7212 7.92771 10.6469 7.77545 10.615 7.61193C10.5348 7.15518 10.563 6.68596 10.6975 6.24213L10.8901 5.60793C11.0392 5.205 11.4866 4.99916 11.8896 5.14818C11.9948 5.18712 12.0904 5.24836 12.1698 5.32772C12.2491 5.40708 12.3104 5.50267 12.3493 5.60793L12.5419 6.24213C12.6763 6.68598 12.7045 7.15517 12.6244 7.61193ZM8.46973 4.49973C8.39016 4.49973 8.31386 4.53134 8.25759 4.5876C8.20133 4.64386 8.16973 4.72017 8.16973 4.79973V7.37553L7.35763 8.18763C7.32791 8.21724 7.30474 8.25275 7.2896 8.29186C7.27446 8.33098 7.26769 8.37284 7.26973 8.41473L7.53223 13.6647C7.53532 13.7207 7.52684 13.7768 7.50733 13.8294C7.48782 13.882 7.4577 13.93 7.41883 13.9704C7.25461 14.1361 6.98716 14.1373 6.82145 13.9731L6.81883 13.9704C6.77995 13.93 6.74982 13.882 6.73031 13.8294C6.7108 13.7768 6.70233 13.7207 6.70543 13.6647L6.96973 8.41473C6.9718 8.37286 6.96508 8.33102 6.94999 8.2919C6.9349 8.25279 6.91178 8.21727 6.88213 8.18763L6.06973 7.37553V4.79973C6.06973 4.72017 6.03812 4.64386 5.98186 4.5876C5.9256 4.53134 5.84929 4.49973 5.76973 4.49973C5.69016 4.49973 5.61386 4.53134 5.55759 4.5876C5.50133 4.64386 5.46973 4.72017 5.46973 4.79973V7.49973C5.46974 7.57929 5.50136 7.65559 5.55763 7.71183L6.36343 8.51793L6.10753 13.6356C6.0803 14.1946 6.5114 14.6699 7.07041 14.6971C7.62943 14.7244 8.1047 14.2933 8.13193 13.7343C8.13354 13.7014 8.13354 13.6685 8.13193 13.6357L7.87603 8.51797L8.68183 7.71187C8.73809 7.65562 8.76971 7.57933 8.76973 7.49977V4.79977C8.76973 4.76037 8.76198 4.72136 8.7469 4.68495C8.73183 4.64855 8.70973 4.61548 8.68187 4.58761C8.65401 4.55975 8.62094 4.53765 8.58454 4.52257C8.54814 4.50749 8.50913 4.49973 8.46973 4.49973Z" fill="#4A4A49"/>
<path d="M6.66914 4.5C6.58958 4.5 6.51327 4.53161 6.45701 4.58787C6.40075 4.64413 6.36914 4.72044 6.36914 4.8V7.2C6.36914 7.27957 6.40075 7.35587 6.45701 7.41213C6.51327 7.46839 6.58958 7.5 6.66914 7.5C6.74871 7.5 6.82501 7.46839 6.88127 7.41213C6.93753 7.35587 6.96914 7.27957 6.96914 7.2V4.8C6.96914 4.72044 6.93753 4.64413 6.88127 4.58787C6.82501 4.53161 6.74871 4.5 6.66914 4.5ZM7.56914 4.5C7.48958 4.5 7.41327 4.53161 7.35701 4.58787C7.30075 4.64413 7.26914 4.72044 7.26914 4.8V7.2C7.26914 7.27957 7.30075 7.35587 7.35701 7.41213C7.41327 7.46839 7.48958 7.5 7.56914 7.5C7.64871 7.5 7.72501 7.46839 7.78127 7.41213C7.83753 7.35587 7.86914 7.27957 7.86914 7.2V4.8C7.86914 4.72044 7.83753 4.64413 7.78127 4.58787C7.72501 4.53161 7.64871 4.5 7.56914 4.5Z" fill="#4A4A49"/>
<path d="M9.36914 0C4.39859 0 0.369141 4.02945 0.369141 9C0.369141 13.9706 4.39859 18 9.36914 18C14.3397 18 18.3691 13.9706 18.3691 9C18.3635 4.03178 14.3374 0.005625 9.36914 0ZM9.36914 17.4C4.72994 17.4 0.969141 13.6392 0.969141 9C0.969141 4.3608 4.72994 0.6 9.36914 0.6C14.0083 0.6 17.7691 4.3608 17.7691 9C17.7639 13.637 14.0061 17.3947 9.36914 17.4Z" fill="#4A4A49"/>
<path d="M10.3434 14.6314C10.3395 14.5912 10.3275 14.5522 10.3081 14.5168C10.2888 14.4814 10.2625 14.4502 10.2308 14.4252C10.1991 14.4001 10.1627 14.3817 10.1237 14.3711C10.0848 14.3605 10.0441 14.3578 10.0041 14.3633L10.0053 14.363C9.58288 14.4121 9.15624 14.4121 8.73386 14.363C8.69472 14.3584 8.65506 14.3616 8.61714 14.3723C8.57922 14.3831 8.54379 14.4012 8.51287 14.4256C8.48195 14.45 8.45614 14.4803 8.43692 14.5147C8.4177 14.5491 8.40545 14.587 8.40086 14.6261C8.39627 14.6653 8.39943 14.7049 8.41017 14.7429C8.42091 14.7808 8.43901 14.8162 8.46344 14.8471C8.48787 14.878 8.51816 14.9039 8.55256 14.9231C8.58697 14.9423 8.62482 14.9545 8.66396 14.9591C9.13237 15.0138 9.60556 15.0138 10.074 14.9591C10.1532 14.9514 10.226 14.9125 10.2766 14.8511C10.3271 14.7896 10.3511 14.7106 10.3434 14.6314ZM13.9596 5.13417C13.9342 5.10399 13.9032 5.07908 13.8683 5.06088C13.8334 5.04269 13.7952 5.03155 13.7559 5.02811C13.7167 5.02467 13.6771 5.02899 13.6396 5.04083C13.602 5.05267 13.5671 5.0718 13.5369 5.09712L13.5357 5.09817C13.4748 5.14945 13.4369 5.2228 13.4301 5.30207C13.4234 5.38134 13.4484 5.46004 13.4997 5.52087C15.3085 7.66812 15.1701 10.8432 13.1814 12.825C13.1259 12.8813 13.0949 12.9573 13.0951 13.0364C13.0954 13.1155 13.1268 13.1913 13.1826 13.2473C13.2385 13.3033 13.3141 13.335 13.3932 13.3356C13.4723 13.3361 13.5484 13.3054 13.605 13.2501C15.8151 11.0483 15.9692 7.52026 13.9596 5.13417ZM7.35926 3.96537L7.3587 3.96533L7.35776 3.96537H7.35926ZM10.7847 3.16767C9.61223 2.88668 8.3826 2.96221 7.25336 3.38457C7.18765 3.40931 7.1327 3.45632 7.09807 3.5174C7.06345 3.57849 7.05135 3.64978 7.06388 3.71887C7.07641 3.78796 7.11278 3.85047 7.16665 3.8955C7.22052 3.94054 7.28848 3.96525 7.3587 3.96533C7.39457 3.96516 7.43012 3.95857 7.46366 3.94587C8.48058 3.56558 9.5879 3.49768 10.6437 3.75087C10.682 3.76013 10.7217 3.76175 10.7606 3.75565C10.7995 3.74955 10.8369 3.73585 10.8705 3.71531C10.9041 3.69478 10.9334 3.66783 10.9566 3.636C10.9798 3.60416 10.9965 3.56806 11.0058 3.52977C11.015 3.49148 11.0166 3.45174 11.0105 3.41281C11.0044 3.37389 10.9907 3.33655 10.9702 3.30293C10.9497 3.2693 10.9227 3.24005 10.8909 3.21685C10.8591 3.19364 10.823 3.17693 10.7847 3.16767ZM5.54426 12.81C5.04353 12.3101 4.64662 11.7161 4.37636 11.0623C4.10611 10.4084 3.96786 9.7075 3.96956 8.99997C3.96659 7.85825 4.32825 6.74541 5.00186 5.82357C5.02554 5.79208 5.04278 5.75623 5.05259 5.71808C5.06241 5.67992 5.06462 5.64021 5.05909 5.6012C5.05356 5.56219 5.0404 5.52465 5.02037 5.49073C5.00033 5.45681 4.97381 5.42717 4.94231 5.4035C4.91023 5.37938 4.87363 5.36195 4.83469 5.35223C4.79574 5.34251 4.75525 5.34071 4.71559 5.34693C4.67594 5.35314 4.63794 5.36726 4.60384 5.38843C4.56973 5.4096 4.54023 5.43739 4.51706 5.47017C2.78258 7.85472 3.0378 11.1461 5.11916 13.2348C5.17557 13.2908 5.25187 13.3221 5.33136 13.322C5.41084 13.3219 5.48703 13.2902 5.54326 13.2341C5.59948 13.1779 5.63115 13.1017 5.63134 13.0222C5.63153 12.9427 5.60022 12.8664 5.54426 12.81Z" fill="#4A4A49"/>
</g>
</g>
<defs>
<clipPath id="clip0_567_740">
<rect width="18" height="18" fill="white" transform="translate(0.369141)"/>
</clipPath>
<clipPath id="clip1_567_740">
<rect width="18" height="18" fill="white" transform="translate(0.369141)"/>
</clipPath>
</defs>
</svg>
