<svg width="16" height="12" viewBox="0 0 16 12" fill="none" xmlns="http://www.w3.org/2000/svg">
<path fill-rule="evenodd" clip-rule="evenodd" d="M7.05505 0.332333C6.83459 0.111879 6.47721 0.111879 6.25675 0.332333L0.987921 5.60111C0.882018 5.70694 0.822555 5.85055 0.822555 6.00026C0.822555 6.14997 0.882018 6.29358 0.987921 6.39948L6.25675 11.6683C6.47721 11.8888 6.83459 11.8888 7.05505 11.6683C7.27551 11.4478 7.27551 11.0904 7.05505 10.8699L2.74997 6.56477L14.9355 6.56477C15.2473 6.56477 15.5 6.31202 15.5 6.00026C15.5 5.68849 15.2473 5.43574 14.9355 5.43574L2.74997 5.43574L7.05505 1.13068C7.27551 0.910226 7.27551 0.552796 7.05505 0.332333Z" fill="white"/>
</svg>
