<svg width="396" height="396" viewBox="0 0 396 396" fill="none" xmlns="http://www.w3.org/2000/svg">
<path fill-rule="evenodd" clip-rule="evenodd" d="M376 0C387.046 0 396 8.95431 396 20V376C396 387.046 387.046 396 376 396H20C8.95431 396 0 387.046 0 376V20C0 8.95431 8.95431 0 20 0H376ZM30 10C18.9543 10 10 18.9543 10 30V366C10 377.046 18.9543 386 30 386H366C377.046 386 386 377.046 386 366V30C386 18.9543 377.046 10 366 10H30Z" fill="#F04951"/>
<path d="M77 0H318.257V10.555H77V0Z" fill="#A9C74E"/>
</svg>
