<svg width="19" height="18" viewBox="0 0 19 18" fill="none" xmlns="http://www.w3.org/2000/svg">
<g clip-path="url(#clip0_567_769)">
<g clip-path="url(#clip1_567_769)">
<path d="M9.36914 0C4.40288 0 0.369141 4.03374 0.369141 9C0.369141 13.9663 4.40288 18 9.36914 18C14.3354 18 18.3691 13.9663 18.3691 9C18.3691 4.03374 14.3354 0 9.36914 0ZM9.36914 17.2193C4.83661 17.2193 1.14986 13.5325 1.14986 9C1.14986 4.46747 4.83661 0.780723 9.36914 0.780723C13.9017 0.780723 17.5884 4.46747 17.5884 9C17.5884 13.5325 13.9017 17.2193 9.36914 17.2193Z" fill="#4A4A49"/>
<path d="M14.054 7.04818H11.3214V4.31565C11.3214 4.09879 11.1479 3.92529 10.9311 3.92529H7.80817C7.59131 3.92529 7.41781 4.09879 7.41781 4.31565V7.04818H4.68528C4.46842 7.04818 4.29492 7.22168 4.29492 7.43855V10.5614C4.29492 10.7783 4.46842 10.9518 4.68528 10.9518H7.41781V13.6843C7.41781 13.9012 7.59131 14.0747 7.80817 14.0747H10.9311C11.1479 14.0747 11.3214 13.9012 11.3214 13.6843V10.9518H14.054C14.2708 10.9518 14.4443 10.7783 14.4443 10.5614V7.43855C14.4226 7.22168 14.2491 7.04818 14.054 7.04818ZM13.6853 10.1711H13.6636H10.9311C10.7142 10.1711 10.5407 10.3446 10.5407 10.5614V13.294H8.19854V10.5614C8.19854 10.3446 8.02504 10.1711 7.80817 10.1711H5.07564V7.82891H7.80817C8.02504 7.82891 8.19854 7.65541 8.19854 7.43855V4.70602H10.5624V7.43855C10.5624 7.65541 10.7359 7.82891 10.9528 7.82891H13.6853V10.1711Z" fill="#4A4A49"/>
</g>
</g>
<defs>
<clipPath id="clip0_567_769">
<rect width="18" height="18" fill="white" transform="translate(0.369141)"/>
</clipPath>
<clipPath id="clip1_567_769">
<rect width="18" height="18" fill="white" transform="translate(0.369141)"/>
</clipPath>
</defs>
</svg>
