<svg width="24" height="25" viewBox="0 0 24 25" fill="none" xmlns="http://www.w3.org/2000/svg">
<path d="M17.53 8.55125C17.46 8.54125 17.39 8.54125 17.32 8.55125C15.77 8.50125 14.54 7.23125 14.54 5.67125C14.54 4.08125 15.83 2.78125 17.43 2.78125C19.02 2.78125 20.32 4.07125 20.32 5.67125C20.31 7.23125 19.08 8.50125 17.53 8.55125Z" fill="#9CB94E"/>
<path d="M20.7896 15.4817C19.6696 16.2317 18.0996 16.5117 16.6496 16.3217C17.0296 15.5017 17.2296 14.5917 17.2396 13.6317C17.2396 12.6317 17.0196 11.6817 16.5996 10.8517C18.0796 10.6517 19.6496 10.9317 20.7796 11.6817C22.3596 12.7217 22.3596 14.4317 20.7896 15.4817Z" fill="#9CB94E"/>
<path d="M6.44016 8.55125C6.51016 8.54125 6.58016 8.54125 6.65016 8.55125C8.20016 8.50125 9.43016 7.23125 9.43016 5.67125C9.43016 4.07125 8.14016 2.78125 6.54016 2.78125C4.95016 2.78125 3.66016 4.07125 3.66016 5.67125C3.66016 7.23125 4.89016 8.50125 6.44016 8.55125Z" fill="#9CB94E"/>
<path d="M6.55012 13.6318C6.55012 14.6018 6.76012 15.5218 7.14012 16.3518C5.73012 16.5018 4.26012 16.2018 3.18012 15.4918C1.60012 14.4418 1.60012 12.7318 3.18012 11.6818C4.25012 10.9618 5.76012 10.6718 7.18012 10.8318C6.77012 11.6718 6.55012 12.6218 6.55012 13.6318Z" fill="#9CB94E"/>
<path d="M12.1198 16.6512C12.0398 16.6412 11.9498 16.6412 11.8598 16.6512C10.0198 16.5912 8.5498 15.0812 8.5498 13.2212C8.5598 11.3212 10.0898 9.78125 11.9998 9.78125C13.8998 9.78125 15.4398 11.3212 15.4398 13.2212C15.4298 15.0812 13.9698 16.5912 12.1198 16.6512Z" fill="#9CB94E"/>
<path d="M8.8698 18.7219C7.3598 19.7319 7.3598 21.3919 8.8698 22.3919C10.5898 23.5419 13.4098 23.5419 15.1298 22.3919C16.6398 21.3819 16.6398 19.7219 15.1298 18.7219C13.4198 17.5719 10.5998 17.5719 8.8698 18.7219Z" fill="#9CB94E"/>
</svg>
