<svg width="18" height="18" viewBox="0 0 18 18" fill="none" xmlns="http://www.w3.org/2000/svg">
<path d="M10.6717 4.67583C11.3264 4.80331 11.928 5.12286 12.3996 5.59359C12.8713 6.06432 13.1914 6.66481 13.3192 7.3182M10.6717 2C12.0318 2.15081 13.3001 2.75871 14.2684 3.72391C15.2366 4.6891 15.8473 5.95421 16.0001 7.31151M15.3299 12.6498V14.6567C15.3306 14.843 15.2924 15.0274 15.2176 15.1981C15.1428 15.3688 15.0332 15.522 14.8956 15.648C14.7581 15.7739 14.5957 15.8698 14.4189 15.9295C14.242 15.9892 14.0547 16.0113 13.8688 15.9946C11.8063 15.7709 9.82522 15.0675 8.08462 13.9409C6.46521 12.9138 5.09223 11.5434 4.06319 9.92713C2.93048 8.18196 2.22556 6.19502 2.00556 4.12728C1.98881 3.94229 2.01084 3.75585 2.07024 3.57982C2.12964 3.4038 2.22511 3.24204 2.35058 3.10486C2.47604 2.96768 2.62875 2.85808 2.79898 2.78303C2.96921 2.70798 3.15324 2.66913 3.33934 2.66896H5.35005C5.67532 2.66576 5.99066 2.78072 6.23728 2.99242C6.48391 3.20411 6.645 3.49809 6.69052 3.81956C6.77539 4.4618 6.93278 5.0924 7.15969 5.69933C7.24987 5.93876 7.26938 6.19898 7.21593 6.44915C7.16247 6.69932 7.03828 6.92895 6.85808 7.11083L6.00688 7.9604C6.961 9.63517 8.35034 11.0218 10.0283 11.9741L10.8795 11.1246C11.0617 10.9447 11.2918 10.8208 11.5425 10.7674C11.7931 10.7141 12.0538 10.7335 12.2937 10.8235C12.9018 11.05 13.5336 11.2071 14.1771 11.2918C14.5027 11.3376 14.8 11.5013 15.0125 11.7517C15.2251 12.0021 15.338 12.3217 15.3299 12.6498Z" stroke="white" stroke-width="1.25" stroke-linecap="round" stroke-linejoin="round"/>
</svg>
