<svg width="20" height="21" viewBox="0 0 20 21" fill="none" xmlns="http://www.w3.org/2000/svg">
<g clip-path="url(#clip0_2541_6378)">
<path d="M10.0005 0.499874C4.48627 0.499874 0.000488281 4.98565 0.000488281 10.4999C0.000488281 16.0141 4.48627 20.4999 10.0005 20.4999C15.5147 20.4999 20.0005 16.0141 20.0005 10.4999C20.0005 4.98565 15.5147 0.499874 10.0005 0.499874ZM13.683 13.004C14.0088 13.3299 14.0088 13.8565 13.683 14.1824C13.5205 14.3449 13.3072 14.4266 13.0938 14.4266C12.8804 14.4266 12.6671 14.3449 12.5046 14.1824L10.0005 11.6782L7.49637 14.1824C7.33386 14.3449 7.12054 14.4266 6.90723 14.4266C6.69376 14.4266 6.48044 14.3449 6.31793 14.1824C5.99216 13.8565 5.99216 13.3299 6.31793 13.004L8.8222 10.4999L6.31793 7.99575C5.99216 7.66983 5.99216 7.14325 6.31793 6.81732C6.64386 6.49154 7.17044 6.49154 7.49637 6.81732L10.0005 9.32159L12.5046 6.81732C12.8305 6.49154 13.3571 6.49154 13.683 6.81732C14.0088 7.14325 14.0088 7.66983 13.683 7.99575L11.1788 10.4999L13.683 13.004Z" fill="#FF5858"/>
</g>
<defs>
<clipPath id="clip0_2541_6378">
<rect width="20" height="20" fill="white" transform="translate(0 0.5)"/>
</clipPath>
</defs>
</svg>
