<svg width="20" height="20" viewBox="0 0 20 20" fill="none" xmlns="http://www.w3.org/2000/svg">
<g clip-path="url(#clip0_3765_5774)">
<path d="M5.50731 16.4949C4.47543 17.0874 3.3123 17.2999 2.62355 17.3762C2.6998 16.6874 2.9123 15.5243 3.50418 14.4918C3.65918 14.2224 3.56605 13.8787 3.29668 13.7237C3.0248 13.5681 2.68293 13.6624 2.52855 13.9318C1.46855 15.7806 1.45605 17.8918 1.45605 17.9812C1.45605 18.2918 1.70793 18.5437 2.01855 18.5437C2.10793 18.5437 4.21918 18.5312 6.06793 17.4712C6.3373 17.3162 6.43043 16.9731 6.27543 16.7031C6.12168 16.4337 5.77855 16.3399 5.50731 16.4949Z" fill="#4A4A49"/>
<path d="M19.3184 2.04696C19.3253 1.67759 19.1859 1.33134 18.9259 1.07196C18.6665 0.812585 18.2915 0.68446 17.9528 0.681335C16.3953 0.71071 12.194 1.15759 8.21901 4.72571C7.51026 4.45009 6.44213 4.04071 5.63151 4.14509C4.43901 4.29821 2.67713 5.92071 0.951507 7.65196C0.722757 7.88134 0.631507 8.20634 0.708382 8.52134C0.784632 8.83759 1.01588 9.08571 1.32588 9.18509L4.06963 10.0663C3.86276 10.4438 3.65901 10.8301 3.46213 11.2376C3.21463 11.7501 3.31963 12.3657 3.72338 12.7682L7.23151 16.2763C7.48901 16.5345 7.83401 16.6707 8.18213 16.6707C8.37901 16.6707 8.57776 16.6276 8.76276 16.5382C9.17026 16.3413 9.55651 16.1376 9.93276 15.9313L10.8146 18.6745C10.914 18.9845 11.1621 19.2157 11.479 19.2926C11.5521 19.3101 11.6259 19.3188 11.6996 19.3188C11.9403 19.3188 12.1721 19.2245 12.3484 19.0488C14.0796 17.3232 15.7021 15.562 15.8546 14.3701C15.9603 13.552 15.5496 12.4901 15.274 11.7813C18.8415 7.80634 19.289 3.60509 19.3184 2.04696ZM1.98026 8.21446C2.89588 7.30259 4.88463 5.37571 5.77463 5.26134C6.17151 5.21071 6.79463 5.39884 7.32088 5.58946C6.39151 6.55009 5.48901 7.70134 4.64776 9.07071L1.98026 8.21446ZM8.27338 15.5251C8.19401 15.5638 8.09213 15.5463 8.02713 15.4813L4.51838 11.9726C4.45401 11.9082 4.43588 11.807 4.47526 11.7263C8.84463 2.67571 15.9121 1.84571 17.9746 1.80696H17.9796C18.054 1.80696 18.1028 1.84009 18.1315 1.86884C18.1553 1.89259 18.1959 1.94509 18.1946 2.02634C18.1546 4.08884 17.324 11.1563 8.27338 15.5251ZM14.739 14.2263C14.6246 15.1157 12.6978 17.1051 11.7859 18.0201L10.9284 15.3532C12.299 14.512 13.4503 13.6088 14.4109 12.6795C14.6021 13.2051 14.7903 13.827 14.739 14.2263Z" fill="#4A4A49"/>
<path d="M15.0808 8.25877C16.0008 7.33815 16.0008 5.84065 15.0808 4.92002C14.1883 4.02877 12.6333 4.02877 11.742 4.92002C11.2964 5.36565 11.0508 5.95877 11.0508 6.5894C11.0508 7.22002 11.297 7.81315 11.742 8.25877C12.1877 8.7044 12.7808 8.95002 13.4114 8.95002C14.042 8.95002 14.6345 8.7044 15.0808 8.25877ZM14.2845 7.46315C13.8177 7.93065 13.0033 7.93065 12.5377 7.46315C12.3039 7.23002 12.1752 6.9194 12.1752 6.5894C12.1752 6.2594 12.3039 5.9494 12.5377 5.71565C12.7708 5.48252 13.0808 5.35377 13.4108 5.35377C13.7402 5.35377 14.0508 5.48252 14.2839 5.71565C14.7664 6.19752 14.7664 6.98127 14.2845 7.46315Z" fill="#4A4A49"/>
</g>
<defs>
<clipPath id="clip0_3765_5774">
<rect width="20" height="20" fill="white"/>
</clipPath>
</defs>
</svg>
