<svg width="28" height="28" viewBox="0 0 28 28" fill="none" xmlns="http://www.w3.org/2000/svg">
<path d="M11.0757 3.1665H16.9269C18.1402 3.1665 19.1024 3.1665 19.8769 3.22984C20.6702 3.29428 21.3402 3.42984 21.9535 3.74095C22.9465 4.24744 23.7535 5.0553 24.2591 6.04873C24.5713 6.65984 24.7069 7.33095 24.7713 8.12428C24.8346 8.89873 24.8346 9.86095 24.8346 11.0743V16.9254C24.8346 18.1387 24.8346 19.1009 24.7713 19.8754C24.7069 20.6687 24.5713 21.3387 24.2602 21.9521C23.754 22.9448 22.9465 23.7519 21.9535 24.2576C21.3402 24.5698 20.6702 24.7054 19.8769 24.7698C19.1024 24.8332 18.1402 24.8332 16.9269 24.8332H11.0757C9.86241 24.8332 8.90019 24.8332 8.12575 24.7698C7.33241 24.7054 6.66241 24.5698 6.05019 24.2587C5.05701 23.7527 4.24954 22.9452 3.74352 21.9521C3.4313 21.3387 3.29575 20.6687 3.2313 19.8754C3.16797 19.1009 3.16797 18.1387 3.16797 16.9254V11.0743C3.16797 9.86095 3.16797 8.89873 3.2313 8.12428C3.29575 7.33095 3.4313 6.66095 3.74241 6.04873C4.24872 5.05538 5.0566 4.24789 6.05019 3.74206C6.6613 3.42984 7.33241 3.29428 8.12575 3.22984C8.90019 3.1665 9.86241 3.1665 11.0757 3.1665ZM9.83464 8.99984C9.83464 9.45984 10.208 9.83317 10.668 9.83317H12.3346C13.0013 9.83317 13.4591 10.0998 13.768 10.4854C13.9391 10.6998 14.0724 10.9632 14.1591 11.2521H10.668C10.447 11.2521 10.235 11.3399 10.0787 11.4961C9.92243 11.6524 9.83464 11.8644 9.83464 12.0854C9.83464 12.3064 9.92243 12.5184 10.0787 12.6746C10.235 12.8309 10.447 12.9187 10.668 12.9187H14.1591C14.0802 13.1981 13.9473 13.4593 13.768 13.6876C13.4591 14.0732 13.0013 14.3398 12.3346 14.3398H10.668C10.5048 14.3399 10.3453 14.3879 10.2091 14.4778C10.073 14.5677 9.96625 14.6956 9.90213 14.8456C9.838 14.9957 9.81932 15.1612 9.84841 15.3217C9.87749 15.4823 9.95306 15.6307 10.0657 15.7487L14.788 20.6865C14.9422 20.8393 15.1499 20.926 15.367 20.9279C15.5841 20.9299 15.7934 20.8471 15.9504 20.6971C16.1073 20.5471 16.1995 20.3417 16.2074 20.1248C16.2152 19.9078 16.1381 19.6964 15.9924 19.5354L12.6091 15.9965C13.0855 15.9716 13.5513 15.8456 13.9754 15.6271C14.3995 15.4085 14.7723 15.1023 15.0691 14.7287C15.4813 14.2011 15.7566 13.5797 15.8702 12.9198H17.3346C17.5556 12.9198 17.7676 12.832 17.9239 12.6758C18.0802 12.5195 18.168 12.3075 18.168 12.0865C18.168 11.8655 18.0802 11.6535 17.9239 11.4972C17.7676 11.341 17.5556 11.2532 17.3346 11.2532H15.8702C15.781 10.7518 15.6018 10.2707 15.3413 9.83317H17.3346C17.5556 9.83317 17.7676 9.74537 17.9239 9.58909C18.0802 9.43281 18.168 9.22085 18.168 8.99984C18.168 8.77882 18.0802 8.56686 17.9239 8.41058C17.7676 8.2543 17.5556 8.1665 17.3346 8.1665H10.668C10.447 8.1665 10.235 8.2543 10.0787 8.41058C9.92243 8.56686 9.83464 8.77882 9.83464 8.99984Z" fill="#9CBA4D"/>
</svg>
