<svg width="29" height="28" viewBox="0 0 29 28" fill="none" xmlns="http://www.w3.org/2000/svg">
<path d="M26.2698 8.84187C24.2005 4.00312 19.4623 0.875 14.1992 0.875C11.338 0.875 8.59047 1.8025 6.32422 3.5V1.75C6.32422 1.26875 5.93047 0.875 5.44922 0.875C4.96797 0.875 4.57422 1.26875 4.57422 1.75V5.25C4.57422 5.6525 4.84547 6.0025 5.23484 6.09875L8.73484 6.97375C8.80484 6.99125 8.87922 7 8.94922 7C9.34297 7 9.69734 6.73312 9.79797 6.33938C9.91609 5.87125 9.63172 5.39438 9.15922 5.27625L7.44422 4.8475C9.39547 3.40812 11.7492 2.625 14.1948 2.625C18.758 2.625 22.8617 5.3375 24.6555 9.53312C25.2636 10.9462 25.5698 12.4469 25.5698 14C25.5698 15.5531 25.2636 17.0537 24.6555 18.4669C24.463 18.9131 24.6686 19.425 25.1148 19.6175C25.2286 19.6656 25.3467 19.6875 25.4605 19.6875C25.8017 19.6875 26.1211 19.4906 26.2655 19.1581C26.9655 17.5263 27.3198 15.7894 27.3198 14C27.3198 12.2106 26.9655 10.4737 26.2655 8.84187H26.2698Z" fill="white"/>
<path d="M23.1631 21.9011L19.6631 21.0261C19.195 20.908 18.7181 21.1924 18.6 21.6649C18.4819 22.133 18.7663 22.6099 19.2388 22.728L20.9538 23.1568C19.0025 24.5961 16.6487 25.3793 14.2031 25.3793C9.64 25.3793 5.53625 22.6668 3.7425 18.4711C3.13438 17.058 2.82812 15.5574 2.82812 14.0043C2.82812 12.4511 3.13438 10.9505 3.7425 9.53739C3.935 9.09114 3.72937 8.57926 3.28312 8.38676C2.83687 8.19864 2.325 8.39989 2.1325 8.84614C1.4325 10.478 1.07812 12.2149 1.07812 14.0043C1.07812 15.7936 1.4325 17.5305 2.1325 19.1624C4.20187 24.0011 8.94 27.1293 14.2031 27.1293C17.0644 27.1293 19.8119 26.2018 22.0781 24.5043V26.2543C22.0781 26.7355 22.4719 27.1293 22.9531 27.1293C23.4344 27.1293 23.8281 26.7355 23.8281 26.2543V22.7543C23.8281 22.3518 23.5569 22.0018 23.1675 21.9055L23.1631 21.9011Z" fill="white"/>
<path d="M12.448 18.3752C12.6711 18.3752 12.8942 18.2877 13.0648 18.1171L20.5023 10.6796C20.8436 10.3384 20.8436 9.78273 20.5023 9.44148C20.1611 9.10023 19.6055 9.10023 19.2642 9.44148L12.4436 16.2621L9.56047 13.379C9.21922 13.0377 8.66359 13.0377 8.32234 13.379C7.98109 13.7202 7.98109 14.2759 8.32234 14.6171L11.8223 18.1171C11.993 18.2877 12.2161 18.3752 12.4392 18.3752H12.448Z" fill="white"/>
</svg>
