<svg width="28" height="28" viewBox="0 0 28 28" fill="none" xmlns="http://www.w3.org/2000/svg">
<path d="M14.014 2.39844C14.0053 2.39844 13.9974 2.39844 13.9895 2.39844C11.7915 2.39844 9.72303 3.25506 8.16466 4.81256C6.60016 6.37531 5.73828 8.45169 5.73828 10.6619C5.73828 12.6989 6.48903 14.6546 7.85316 16.1648C8.69928 17.1028 9.16478 18.3514 9.16478 19.6823C9.16478 20.7472 9.80791 21.6624 10.724 22.0684V22.7684C10.724 24.3312 11.9954 25.6034 13.5582 25.6034H14.4437C16.0064 25.6034 17.2778 24.3312 17.2778 22.7684V22.0684C18.1939 21.6624 18.837 20.7472 18.837 19.6823C18.837 18.3514 19.3025 17.1037 20.1487 16.1648C21.5128 14.6537 22.2635 12.6989 22.2635 10.6619C22.2635 8.45256 21.4017 6.37619 19.8372 4.81256C18.277 3.25594 16.2085 2.39844 14.014 2.39844ZM14.4428 24.0276H13.5573C12.8634 24.0276 12.299 23.4623 12.299 22.7684V22.2942H15.7019V22.7684C15.701 23.4623 15.1367 24.0276 14.4428 24.0276ZM18.9788 15.1104C17.8702 16.3372 17.2603 17.9612 17.2603 19.6823C17.2603 20.2537 16.7957 20.7192 16.2234 20.7192H11.7749C11.2035 20.7192 10.738 20.2546 10.738 19.6823C10.738 17.9612 10.1282 16.3381 9.01953 15.1104C7.91791 13.8889 7.31153 12.3096 7.31153 10.6619C7.31153 8.87344 8.00891 7.19256 9.27503 5.92731C10.5368 4.66819 12.2098 3.97519 13.9904 3.97519C13.9992 3.97606 14.0053 3.97606 14.0097 3.97519C15.7868 3.97519 17.4598 4.66819 18.7224 5.92731C19.9885 7.19256 20.6859 8.87344 20.6859 10.6619C20.6877 12.3087 20.0804 13.8881 18.9788 15.1104Z" fill="white"/>
<path d="M12.7018 5.62231C11.0095 6.05719 9.61655 7.35831 9.06355 9.01993C8.92705 9.43293 9.15017 9.87831 9.5623 10.0166C9.64542 10.0437 9.72855 10.0568 9.8108 10.0568C10.1407 10.0568 10.4487 9.84768 10.558 9.51781C10.9422 8.35931 11.9143 7.45194 13.092 7.14919C13.5129 7.04069 13.7667 6.61193 13.659 6.19018C13.5514 5.76843 13.1227 5.52081 12.7018 5.62231Z" fill="white"/>
<path d="M3.60683 5.36063C3.24721 5.11388 2.75721 5.20751 2.51221 5.56626C2.26721 5.92501 2.35908 6.41501 2.71783 6.66088L3.89908 7.46851C4.03471 7.56126 4.18958 7.60588 4.34271 7.60588C4.59383 7.60588 4.84058 7.48513 4.99371 7.26201C5.23871 6.90326 5.14683 6.41326 4.78808 6.16738L3.60683 5.36063Z" fill="white"/>
<path d="M3.94906 10.8148C3.94906 10.38 3.59644 10.0273 3.16156 10.0273H1.74844C1.31356 10.0273 0.960938 10.38 0.960938 10.8148C0.960938 11.2497 1.31356 11.6023 1.74844 11.6023H3.16069C3.59556 11.6032 3.94906 11.2497 3.94906 10.8148Z" fill="white"/>
<path d="M3.89556 14.1635L2.71431 14.9702C2.35556 15.2152 2.26281 15.7061 2.50869 16.0648C2.66094 16.288 2.90856 16.4087 3.15969 16.4087C3.31281 16.4087 3.46769 16.3641 3.60331 16.2713L4.78456 15.4646C5.14331 15.2196 5.23606 14.7287 4.99019 14.37C4.74431 14.0112 4.25431 13.9158 3.89556 14.1635Z" fill="white"/>
<path d="M23.6558 7.60627C23.8089 7.60627 23.9638 7.56164 24.0994 7.46889L25.2807 6.66127C25.6394 6.41539 25.7322 5.92539 25.4863 5.56664C25.2404 5.20789 24.7504 5.11339 24.3917 5.36102L23.2104 6.16864C22.8517 6.41452 22.7589 6.90452 23.0048 7.26327C23.1579 7.48639 23.4047 7.60627 23.6558 7.60627Z" fill="white"/>
<path d="M26.2466 10.0273H24.8344C24.3995 10.0273 24.0469 10.38 24.0469 10.8148C24.0469 11.2497 24.3995 11.6023 24.8344 11.6023H26.2466C26.6815 11.6023 27.0341 11.2497 27.0341 10.8148C27.0341 10.38 26.6815 10.0273 26.2466 10.0273Z" fill="white"/>
<path d="M24.099 14.1634C23.7403 13.9166 23.2485 14.0102 23.0044 14.369C22.7594 14.7277 22.8513 15.2186 23.21 15.4636L24.3913 16.2704C24.5269 16.3631 24.6818 16.4077 24.8349 16.4077C25.086 16.4077 25.3336 16.287 25.4859 16.0639C25.7309 15.7051 25.639 15.2142 25.2803 14.9692L24.099 14.1634Z" fill="white"/>
</svg>
