<svg width="29" height="29" viewBox="0 0 29 29" fill="none" xmlns="http://www.w3.org/2000/svg">
<path d="M14.4688 1.10156L3.96875 4.92006V14.1566C3.97127 15.9593 4.39894 17.736 5.21704 19.3424C6.03514 20.9488 7.2206 22.3396 8.67712 23.4018L14.4688 27.6141L20.2604 23.4018C21.7169 22.3396 22.9024 20.9488 23.7205 19.3424C24.5386 17.736 24.9662 15.9593 24.9688 14.1566V4.92006L14.4688 1.10156ZM23.2188 14.1566C23.2163 15.6833 22.854 17.188 22.1612 18.5485C21.4684 19.909 20.4647 21.087 19.2314 21.9869L14.4688 25.4511L9.70613 21.9869C8.47283 21.087 7.46906 19.909 6.77626 18.5485C6.08347 17.188 5.72117 15.6833 5.71875 14.1566V6.14506L14.4688 2.96356L23.2188 6.14506V14.1566Z" fill="white"/>
<path d="M10.7138 12.1328L9.47656 13.3701L13.3764 17.2699L19.4638 11.1826L18.2266 9.94531L13.3764 14.7954L10.7138 12.1328Z" fill="white"/>
</svg>
