<svg width="29" height="29" viewBox="0 0 29 29" fill="none" xmlns="http://www.w3.org/2000/svg">
<g clip-path="url(#clip0_1793_7423)">
<path d="M28.4814 11.4177C28.3914 11.695 28.1341 11.8713 27.8574 11.8713C27.7902 11.8713 27.7219 11.8609 27.6546 11.839L25.2681 11.0636C24.9234 10.9516 24.7347 10.5814 24.8467 10.2367C24.9587 9.89199 25.3289 9.70332 25.6737 9.81532L28.0601 10.5907C28.4048 10.7028 28.5934 11.073 28.4814 11.4177ZM21.7131 4.80928C21.7591 4.81907 21.805 4.82377 21.8502 4.82377C22.1535 4.82377 22.4259 4.61235 22.4915 4.30386L23.0133 1.84949C23.0886 1.495 22.8623 1.14648 22.5078 1.07112C22.1534 0.995758 21.8049 1.22206 21.7294 1.57659L21.2077 4.03097C21.1324 4.38545 21.3586 4.73392 21.7131 4.80928ZM25.3574 7.08149L27.5129 5.83702C27.8268 5.65579 27.9343 5.25444 27.7532 4.94053C27.5719 4.62657 27.1706 4.51906 26.8567 4.70029L24.7011 5.94476C24.3872 6.12599 24.2797 6.52734 24.4609 6.84125C24.5824 7.0518 24.803 7.16949 25.0298 7.16949C25.1412 7.16949 25.254 7.14116 25.3574 7.08149ZM23.9895 15.1501C24.2522 15.605 24.3216 16.1365 24.185 16.6464C24.0483 17.1563 23.7225 17.5818 23.2675 17.8445C22.9577 18.0234 22.619 18.1084 22.2846 18.1084C21.7446 18.1084 21.2165 17.886 20.8385 17.4802C17.9494 17.7567 15.0672 18.559 12.2538 19.8689L15.818 23.4331C16.0744 23.6894 16.0744 24.1049 15.818 24.3612L13.5618 26.6175C13.4388 26.7406 13.2718 26.8097 13.0978 26.8097C12.9238 26.8097 12.7568 26.7406 12.6338 26.6175L8.16213 22.1459C7.56756 22.4413 6.93155 22.5827 6.30264 22.5827C4.84976 22.5827 3.43494 21.8293 2.65778 20.4833L1.51114 18.4972C0.35308 16.4914 1.0428 13.9173 3.04863 12.7591L6.10178 10.9964C8.97019 9.11078 11.3572 6.8436 13.202 4.25404C12.9388 3.39534 13.2911 2.43568 14.1013 1.96794C15.0433 1.42424 16.2519 1.74809 16.7957 2.68992L18.8941 6.32451L19.0665 6.22498C19.7575 5.82603 20.5649 5.72054 21.3399 5.9283C22.1149 6.13595 22.7615 6.63092 23.1604 7.32195C23.5594 8.01299 23.6648 8.82039 23.4571 9.59537C23.2494 10.3704 22.7544 11.017 22.0634 11.4159L21.8911 11.5154L23.9895 15.1501ZM19.5503 7.46124L21.2348 10.3788L21.4071 10.2793C21.7945 10.0557 22.0723 9.69217 22.1893 9.25581C22.3062 8.81946 22.2474 8.36577 22.0237 7.97831C21.8 7.59091 21.4365 7.31309 21.0002 7.19617C20.5638 7.07931 20.1101 7.13809 19.7227 7.36171L19.5503 7.46124ZM7.32114 11.7583L11.3989 18.8211C14.2337 17.4639 17.142 16.5992 20.0659 16.2441L13.8865 5.541C12.117 7.89552 9.91404 9.98184 7.32114 11.7583ZM7.73956 20.8842L10.2407 19.4402L6.20601 12.4519L3.70482 13.8959C2.32571 14.6922 1.85152 16.4619 2.64771 17.8411L3.79435 19.8271C4.5906 21.2062 6.36045 21.6804 7.73956 20.8842ZM14.4259 23.8972L11.0292 20.5004L9.34513 21.4727L13.0978 25.2254L14.4259 23.8972ZM22.8528 15.8063L15.659 3.34623C15.477 3.03106 15.0726 2.92267 14.7574 3.10467C14.4423 3.28662 14.3339 3.69109 14.5159 4.00625L21.7097 16.4663C21.8916 16.7815 22.2961 16.8898 22.6113 16.7079C22.7626 16.6205 22.8713 16.478 22.9172 16.3067C22.9631 16.1354 22.9402 15.9577 22.8528 15.8063Z" fill="white"/>
</g>
<defs>
<clipPath id="clip0_1793_7423">
<rect width="28" height="28" fill="white" transform="translate(0.949219 0.0566406)"/>
</clipPath>
</defs>
</svg>
