<svg width="24" height="24" viewBox="0 0 24 24" fill="none" xmlns="http://www.w3.org/2000/svg">
<path d="M19.2444 10.5444H19.2096C18.5416 10.5444 17.9793 11.1121 17.9793 11.8419V12.8534C17.9793 13.0548 17.8157 13.2184 17.6142 13.2184C17.4126 13.2184 17.2492 13.0548 17.2492 12.8534V10.9856C17.2492 10.2559 16.7193 9.66223 16.0515 9.66223C15.38 9.66223 14.8501 10.2559 14.8501 10.9856V12.9652C14.8501 13.1669 14.6865 13.3303 14.485 13.3303C14.2834 13.3303 14.12 13.1669 14.12 12.9652V10.4421C14.12 9.71255 13.5691 9.13621 12.9013 9.13621H12.8642C12.2131 9.13621 11.6688 9.68281 11.6688 10.3871V13.2282C11.6688 13.4299 11.5052 13.5933 11.3037 13.5933C11.102 13.5933 10.9386 13.4299 10.9386 13.2282V10.4694C10.9386 10.4604 10.9376 10.451 10.9376 10.4419C10.9376 10.4195 10.9386 10.3971 10.9386 10.3749V3.92475C10.9386 3.19501 10.3879 2.60156 9.72034 2.60156C9.05253 2.60156 8.50207 3.19481 8.50146 3.92394L8.49413 14.6201C8.49392 14.7743 8.39715 14.9118 8.2519 14.9637C8.10685 15.0157 7.94468 14.9709 7.8469 14.8517L6.56975 13.2971C6.23299 12.8752 5.73591 12.6124 5.19746 12.5714C4.67043 12.5366 4.15256 12.7224 3.76793 13.0844C3.76345 13.0885 3.75876 13.0933 3.75388 13.0974L3.50391 13.3064L7.93185 21.8158C8.63083 23.1589 9.95259 23.9999 11.3809 23.9999H16.4995C18.6777 23.9999 20.4515 22.0835 20.4537 19.736C20.455 18.4929 20.4562 17.5604 20.4572 16.8093C20.4599 14.8014 20.4607 14.0629 20.4556 11.851C20.4539 11.1233 19.9106 10.5444 19.2444 10.5444Z" fill="#A9C74E"/>
<path d="M6.3983 4.05248C6.59999 4.05248 6.76338 3.88909 6.76338 3.6874C6.7591 2.63293 7.31913 1.65648 8.23161 1.12802C9.14409 0.59956 10.2697 0.59956 11.1821 1.12802C12.0946 1.65648 12.6547 2.63293 12.6502 3.6874C12.6502 3.88909 12.8138 4.05248 13.0153 4.05248C13.2169 4.05248 13.3803 3.88909 13.3803 3.6874C13.3854 2.37176 12.6862 1.15369 11.5476 0.494438C10.409 -0.164813 9.00475 -0.164813 7.86613 0.494438C6.72752 1.15369 6.02834 2.37176 6.03323 3.6874C6.03323 3.88909 6.19682 4.05248 6.3983 4.05248Z" fill="#A9C74E"/>
</svg>
