<svg width="18" height="18" viewBox="0 0 18 18" fill="none" xmlns="http://www.w3.org/2000/svg">
<path d="M17.8115 9.21466C17.8115 14.0563 13.8534 17.9791 9.04712 17.9791C4.2055 17.9791 0.282723 14.0563 0.282723 9.21466C0.282723 4.40838 4.2055 0.450262 9.04712 0.450262C13.8534 0.450262 17.8115 4.40838 17.8115 9.21466ZM8.02225 13.8796L14.5249 7.37696C14.7369 7.16492 14.7369 6.77618 14.5249 6.56414L13.712 5.78665C13.5 5.53927 13.1466 5.53927 12.9346 5.78665L7.63351 11.0877L5.12435 8.61387C4.9123 8.36649 4.5589 8.36649 4.34686 8.61387L3.53403 9.39136C3.32199 9.6034 3.32199 9.99215 3.53403 10.2042L7.20942 13.8796C7.42147 14.0916 7.81021 14.0916 8.02225 13.8796Z" fill="#A9C74E"/>
</svg>
