<svg width="19" height="18" viewBox="0 0 19 18" fill="none" xmlns="http://www.w3.org/2000/svg">
<path d="M14.4606 14.091V9.00008C14.4606 6.1929 12.1765 3.90918 9.36972 3.90918C6.56291 3.90918 4.27878 6.1929 4.27878 9.00008V14.091C3.47692 14.091 2.82422 14.7433 2.82422 15.5455V16.6365C2.82422 16.8375 2.98687 17.0001 3.18787 17.0001H15.5515C15.7525 17.0001 15.9152 16.8375 15.9152 16.6365V15.5455C15.9152 14.7433 15.2625 14.091 14.4606 14.091ZM5.00607 9.00008C5.00607 6.59384 6.96347 4.63644 9.36972 4.63644C11.776 4.63644 13.7334 6.59384 13.7334 9.00008V14.091H5.00607V9.00008ZM15.1879 16.2728H3.55151V15.5455C3.55151 15.1446 3.87749 14.8183 4.27878 14.8183H14.4606C14.8619 14.8183 15.1879 15.1446 15.1879 15.5455V16.2728Z" fill="#4A4A49"/>
<path d="M9.36951 3.18182C9.57051 3.18182 9.73316 3.01917 9.73316 2.81817V1.36365C9.73312 1.16265 9.57047 1 9.36951 1C9.16854 1 9.00586 1.16265 9.00586 1.36365V2.81821C9.00586 3.01917 9.16851 3.18182 9.36951 3.18182Z" fill="#4A4A49"/>
<path d="M13.0052 3.54572C13.0983 3.54572 13.1913 3.5102 13.2623 3.43919L14.354 2.34828C14.496 2.20659 14.496 1.9761 14.354 1.83408C14.2119 1.69202 13.9818 1.69202 13.8398 1.83408L12.7481 2.92499C12.6061 3.06667 12.6061 3.29716 12.7481 3.43919C12.8191 3.5102 12.9122 3.54572 13.0052 3.54572Z" fill="#4A4A49"/>
<path d="M5.47502 3.43919C5.54603 3.5102 5.6391 3.54572 5.73214 3.54572C5.82517 3.54572 5.91821 3.5102 5.98925 3.43919C6.13131 3.2975 6.13131 3.06702 5.98925 2.92499L4.89906 1.83408C4.757 1.69202 4.52689 1.69202 4.38486 1.83408C4.24281 1.97576 4.24281 2.20625 4.38486 2.34828L5.47502 3.43919Z" fill="#4A4A49"/>
<path d="M17.331 5.20116C17.2408 5.02146 17.0234 4.94973 16.843 5.03851L15.3885 5.76577C15.2088 5.8556 15.1363 6.07402 15.2258 6.25371C15.2898 6.38121 15.4183 6.45471 15.5511 6.45471C15.6058 6.45471 15.6612 6.44227 15.7138 6.41636L17.1683 5.6891C17.348 5.59924 17.4205 5.38085 17.331 5.20116Z" fill="#4A4A49"/>
<path d="M3.18733 6.4544C3.32015 6.4544 3.4487 6.3809 3.51262 6.2534C3.60211 6.07371 3.52967 5.85532 3.34998 5.76546L1.89542 5.03819C1.71572 4.95014 1.49768 5.02115 1.40747 5.20084C1.31799 5.38053 1.39043 5.59892 1.57012 5.68879L3.02468 6.41605C3.07725 6.44196 3.13265 6.4544 3.18733 6.4544Z" fill="#4A4A49"/>
<path d="M9.3688 5.36377C7.36381 5.36377 5.73242 6.99516 5.73242 9.00015C5.73242 9.20115 5.89507 9.3638 6.09607 9.3638C6.29707 9.3638 6.45972 9.20115 6.45972 9.00015C6.45972 7.3961 7.76441 6.09107 9.3688 6.09107C9.5698 6.09107 9.73245 5.92842 9.73245 5.72742C9.73245 5.52642 9.56977 5.36377 9.3688 5.36377Z" fill="#4A4A49"/>
</svg>
