<svg width="24" height="25" viewBox="0 0 24 25" fill="none" xmlns="http://www.w3.org/2000/svg">
<path d="M16.4404 4.82227C19.0925 4.8225 21.2499 6.98303 21.25 9.66211C21.25 10.7705 21.0734 11.7928 20.7666 12.7412L20.7646 12.7461C20.0283 15.0762 18.5162 16.963 16.8721 18.376C15.2247 19.7917 13.4876 20.6947 12.3779 21.0723L12.3701 21.0752C12.3052 21.098 12.1711 21.1221 12 21.1221C11.8289 21.1221 11.6948 21.098 11.6299 21.0752L11.6221 21.0723L11.1777 20.9062C10.0794 20.4612 8.56949 19.6149 7.12793 18.376C5.48382 16.963 3.97165 15.0762 3.23535 12.7461L3.2334 12.7412C2.92657 11.7928 2.75 10.7705 2.75 9.66211C2.75008 6.98303 4.90753 4.8225 7.55957 4.82227C9.12221 4.82227 10.5243 5.58226 11.3994 6.75195L12 7.55469L12.6006 6.75195C13.4757 5.58226 14.8778 4.82227 16.4404 4.82227Z" stroke="white" stroke-width="1.5"/>
</svg>
