<svg width="24" height="25" viewBox="0 0 24 25" fill="none" xmlns="http://www.w3.org/2000/svg">
<path d="M17 21.4727H7C4 21.4727 2 19.9727 2 16.4727V9.47266C2 5.97266 4 4.47266 7 4.47266H17C20 4.47266 22 5.97266 22 9.47266V16.4727C22 19.9727 20 21.4727 17 21.4727Z" stroke="white" stroke-width="1.5" stroke-miterlimit="10" stroke-linecap="round" stroke-linejoin="round"/>
<path d="M12 15.9727C13.6569 15.9727 15 14.6295 15 12.9727C15 11.3158 13.6569 9.97266 12 9.97266C10.3431 9.97266 9 11.3158 9 12.9727C9 14.6295 10.3431 15.9727 12 15.9727Z" stroke="white" stroke-width="1.5" stroke-miterlimit="10" stroke-linecap="round" stroke-linejoin="round"/>
<path d="M5.5 10.4727V15.4727" stroke="white" stroke-width="1.5" stroke-miterlimit="10" stroke-linecap="round" stroke-linejoin="round"/>
<path d="M18.5 10.4727V15.4727" stroke="white" stroke-width="1.5" stroke-miterlimit="10" stroke-linecap="round" stroke-linejoin="round"/>
</svg>
