<svg width="24" height="25" viewBox="0 0 24 25" fill="none" xmlns="http://www.w3.org/2000/svg">
<path d="M8.37988 12.9727L10.7899 15.3927L15.6199 10.5527" stroke="white" stroke-width="1.5" stroke-linecap="round" stroke-linejoin="round"/>
<path d="M10.7499 3.42297C11.4399 2.83297 12.5699 2.83297 13.2699 3.42297L14.8499 4.78297C15.1499 5.04297 15.7099 5.25297 16.1099 5.25297H17.8099C18.8699 5.25297 19.7399 6.12297 19.7399 7.18297V8.88297C19.7399 9.27297 19.9499 9.84297 20.2099 10.143L21.5699 11.723C22.1599 12.413 22.1599 13.543 21.5699 14.243L20.2099 15.823C19.9499 16.123 19.7399 16.683 19.7399 17.083V18.783C19.7399 19.843 18.8699 20.713 17.8099 20.713H16.1099C15.7199 20.713 15.1499 20.923 14.8499 21.183L13.2699 22.543C12.5799 23.133 11.4499 23.133 10.7499 22.543L9.16988 21.183C8.86988 20.923 8.30988 20.713 7.90988 20.713H6.17988C5.11988 20.713 4.24988 19.843 4.24988 18.783V17.073C4.24988 16.683 4.03988 16.123 3.78988 15.823L2.43988 14.233C1.85988 13.543 1.85988 12.423 2.43988 11.733L3.78988 10.143C4.03988 9.84297 4.24988 9.28297 4.24988 8.89297V7.17297C4.24988 6.11297 5.11988 5.24297 6.17988 5.24297H7.90988C8.29988 5.24297 8.86988 5.03297 9.16988 4.77297L10.7499 3.42297Z" stroke="white" stroke-width="1.5" stroke-linecap="round" stroke-linejoin="round"/>
</svg>
