<svg width="36" height="36" viewBox="0 0 36 36" fill="none" xmlns="http://www.w3.org/2000/svg">
<path d="M18.002 3C26.2865 3 33.002 9.7155 33.002 18C33.002 26.2845 26.2865 33 18.002 33C15.3511 33.0046 12.7468 32.303 10.457 30.9675L3.00798 33L5.03598 25.548C3.69941 23.2574 2.99733 20.652 3.00198 18C3.00198 9.7155 9.71748 3 18.002 3ZM12.89 10.95L12.59 10.962C12.396 10.9754 12.2065 11.0263 12.032 11.112C11.8693 11.2043 11.7208 11.3194 11.591 11.454C11.411 11.6235 11.309 11.7705 11.1995 11.913C10.6447 12.6344 10.3459 13.52 10.3505 14.43C10.3535 15.165 10.5455 15.8805 10.8455 16.5495C11.459 17.9025 12.4685 19.335 13.8005 20.6625C14.1215 20.982 14.4365 21.303 14.7755 21.6015C16.4306 23.0586 18.4029 24.1095 20.5355 24.6705L21.3875 24.801C21.665 24.816 21.9425 24.795 22.2215 24.7815C22.6583 24.7585 23.0847 24.6402 23.471 24.435C23.6672 24.3335 23.8589 24.2234 24.0455 24.105C24.0455 24.105 24.109 24.062 24.233 23.97C24.4355 23.82 24.56 23.7135 24.728 23.538C24.854 23.408 24.959 23.257 25.043 23.085C25.16 22.8405 25.277 22.374 25.325 21.9855C25.361 21.6885 25.3505 21.5265 25.346 21.426C25.34 21.2655 25.2065 21.099 25.061 21.0285L24.188 20.637C24.188 20.637 22.883 20.0685 22.085 19.7055C22.0014 19.6691 21.912 19.6483 21.821 19.644C21.7183 19.6333 21.6146 19.6447 21.5168 19.6776C21.4189 19.7105 21.3293 19.764 21.254 19.8345C21.2465 19.8315 21.146 19.917 20.0615 21.231C19.9992 21.3146 19.9135 21.3779 19.8152 21.4126C19.7169 21.4473 19.6104 21.452 19.5095 21.426C19.4117 21.3999 19.316 21.3669 19.223 21.327C19.037 21.249 18.9725 21.219 18.845 21.165C17.9838 20.7899 17.1866 20.2822 16.4825 19.6605C16.2935 19.4955 16.118 19.3155 15.938 19.1415C15.3479 18.5763 14.8336 17.937 14.408 17.2395L14.3195 17.097C14.2569 17.0007 14.2055 16.8975 14.1665 16.7895C14.1095 16.569 14.258 16.392 14.258 16.392C14.258 16.392 14.6225 15.993 14.792 15.777C14.957 15.567 15.0965 15.363 15.1865 15.2175C15.3635 14.9325 15.419 14.64 15.326 14.4135C14.906 13.3875 14.472 12.367 14.024 11.352C13.9355 11.151 13.673 11.007 13.4345 10.9785C13.3535 10.9685 13.2725 10.9605 13.1915 10.9545C12.9901 10.9429 12.7881 10.945 12.587 10.9605L12.89 10.95Z" fill="white"/>
</svg>
